<?xml version="1.0" encoding="utf-8"?>
<!-- Generator: Adobe Illustrator 21.0.0, SVG Export Plug-In . SVG Version: 6.00 Build 0)  -->
<svg version="1.1" xmlns="http://www.w3.org/2000/svg" xmlns:xlink="http://www.w3.org/1999/xlink" x="0px" y="0px"
	 viewBox="0 0 1024 1024" style="enable-background:new 0 0 1024 1024;" xml:space="preserve">
<style type="text/css">
	.st0{display:none;}
	.st1{display:inline;}
	.st2{opacity:0.25;}
	.st3{display:inline;opacity:0.25;}
	.st4{fill:#E5AD65;}
	.st5{enable-background:new    ;}
	.st6{fill:url(#SVGID_1_);}
	.st7{fill:url(#SVGID_2_);}
	.st8{fill:url(#SVGID_3_);}
	.st9{fill:url(#SVGID_4_);}
	.st10{fill:url(#SVGID_5_);}
	.st11{fill:#FDFDFD;}
	.st12{fill:url(#SVGID_6_);}
	.st13{opacity:0.36;fill:#FFFFFF;}
	.st14{clip-path:url(#SVGID_9_);enable-background:new    ;}
	.st15{fill:url(#SVGID_10_);}
	.st16{clip-path:url(#SVGID_13_);enable-background:new    ;}
	.st17{fill:url(#SVGID_14_);}
	.st18{fill:url(#SVGID_15_);}
	.st19{fill:url(#SVGID_16_);}
	.st20{clip-path:url(#SVGID_19_);enable-background:new    ;}
	.st21{fill:url(#SVGID_20_);}
	.st22{fill:url(#SVGID_21_);}
	.st23{fill:url(#SVGID_22_);}
	.st24{fill:url(#SVGID_23_);}
	.st25{fill:url(#SVGID_24_);}
	.st26{fill:url(#SVGID_25_);}
	.st27{fill:url(#SVGID_26_);}
	.st28{fill:#D5E9F4;}
	.st29{fill:url(#SVGID_27_);}
	.st30{fill:url(#SVGID_28_);}
	.st31{fill:url(#SVGID_29_);}
	.st32{fill:url(#SVGID_30_);}
</style>
<g id="图层_1" class="st0">
	<g id="bg">
		<g id="图层_2" class="st1">
			<g id="图标参考线">
				<g id="图标尺寸" class="st2">
					<path d="M1018.2,5.8v1012.5H5.8V5.8H1018.2 M1024,0H0v1024h1024V0z"/>
					<path d="M512,28.8c266.9,0,483.2,216.4,483.2,483.2S778.9,995.2,512,995.2S28.8,778.9,28.8,512S245.1,28.8,512,28.8 M512,23
						C241.9,23,23,241.9,23,512s218.9,489,489,489s489-218.9,489-489C1000.7,242,782,23.3,512,23z"/>
					<path d="M949.2,74.8v874.4H74.8V74.8H949.2 M955,69H69v886h886V69z"/>
					<path d="M995.2,28.8v966.5H28.8V28.8H995.2 M1001,23H23v978h978V23z"/>
					<path d="M995.2,189.8v644.3H28.8V189.8H995.2 M1001,184.1H23v655.8h978V184.1z"/>
				</g>
			</g>
		</g>
	</g>
	<g id="图标尺寸_1_" class="st3">
		<g>
			<path d="M1017.1,4.6v1010.2H6.9V4.6L1017.1,4.6 M1021.7,0h-6.9H4.6H0v6.9v1010.2v6.9h6.9h1010.2h6.9v-6.9V6.9V0H1021.7z"/>
		</g>
		<g>
			<path d="M512,27.6c266.3,0,482.2,215.8,482.2,482.2S778.3,991.9,512,991.9S29.8,776.1,29.8,509.7S245.7,27.6,512,27.6 M512,23
				c-268.6,0-489,218.1-489,486.7s218.1,486.7,489,486.7s489-218.1,489-486.7S780.6,23,512,23L512,23z"/>
		</g>
		<g>
			<path d="M948.2,73.5V946H75.8V73.5L948.2,73.5 M952.8,68.9h-6.9H73.5h-4.6v6.9v872.5v6.9h6.9h872.5h6.9v-6.9V75.8v-6.9H952.8z"/>
		</g>
		<g>
			<path d="M994.1,27.6v964.3H29.8V27.6L994.1,27.6 M998.7,23h-6.9H27.5h-4.6v6.9v964.3v6.9h6.9h964.3h6.9v-6.9V29.9V23H998.7z"/>
		</g>
		<g>
			<path d="M994.1,188.3v642.9H29.8V188.3L994.1,188.3 M998.7,183.7h-6.9H27.5h-4.6v4.6v642.9v6.9h6.9h964.3h6.9v-6.9V188.3v-4.6
				H998.7z"/>
		</g>
	</g>
</g>
<g id="图层_2_1_">
	<line class="st4" x1="853.5" y1="860.6" x2="858.4" y2="860.9"/>
	<g>
		<g>
			<g class="st5">
				<linearGradient id="SVGID_1_" gradientUnits="userSpaceOnUse" x1="311.6305" y1="892.3954" x2="682.2126" y2="892.3954">
					<stop  offset="0" style="stop-color:#D7D8D5"/>
					<stop  offset="1" style="stop-color:#EDEDEE"/>
				</linearGradient>
				<path class="st6" d="M682.2,806.5c0,0.7-0.1,1.5-0.4,2.2c0,0.1,0,0.2-0.1,0.2c-0.2,0.7-0.6,1.3-1,2c-0.1,0.1-0.2,0.2-0.2,0.4
					c-0.5,0.6-1,1.3-1.7,1.9c-0.4,0.4-1,0.8-1.5,1.1c-0.4,0.3-0.8,0.6-1.3,0.9L483.2,927.2c-1.3,0.7-2.7,1.3-4.2,1.8
					c-0.5,0.2-1.1,0.3-1.6,0.5c-0.7,0.2-1.4,0.4-2.1,0.5c-0.9,0.2-1.7,0.3-2.6,0.4c-0.2,0-0.4,0.1-0.6,0.1c-1.2,0.1-2.4,0.2-3.6,0.2
					c-0.2,0-0.4,0-0.6,0c-1.2,0-2.4-0.1-3.5-0.2c-0.2,0-0.4,0-0.5-0.1c-1.2-0.1-2.3-0.3-3.4-0.6c-0.2,0-0.4-0.1-0.6-0.1
					c-1-0.3-2-0.6-3-0.9c-0.2-0.1-0.4-0.1-0.5-0.2c-1.1-0.4-2.2-1-3.3-1.5l-134.9-77.9c-4.2-2.4-6.3-5.6-6.3-8.8l-0.1,47.5
					c0,3.2,2.1,6.4,6.3,8.8l134.9,77.9c1,0.6,2,1,3.1,1.5c0.1,0,0.1,0,0.2,0.1c0.2,0.1,0.3,0.1,0.5,0.2c0.6,0.2,1.2,0.5,1.9,0.6
					c0.3,0.1,0.7,0.2,1.1,0.3c0.2,0.1,0.4,0.1,0.6,0.1c0.2,0,0.4,0.1,0.6,0.1c0.7,0.1,1.4,0.3,2.1,0.4c0.3,0,0.5,0.1,0.8,0.1
					c0.2,0,0.4,0,0.5,0.1c0.3,0,0.5,0.1,0.8,0.1c0.7,0.1,1.4,0.1,2.1,0.1c0.2,0,0.4,0,0.7,0c0.2,0,0.4,0,0.6,0c0.3,0,0.6,0,1,0
					c0.8,0,1.6-0.1,2.4-0.2c0.1,0,0.2,0,0.3,0c0.2,0,0.4-0.1,0.6-0.1c0.6-0.1,1.2-0.1,1.8-0.3c0.3,0,0.5-0.1,0.8-0.2
					c0.7-0.1,1.4-0.3,2.1-0.5c0.4-0.1,0.8-0.2,1.1-0.3c0.2-0.1,0.3-0.2,0.5-0.2c1.5-0.5,2.9-1.1,4.2-1.8l192.8-112.1
					c0.1-0.1,0.2-0.1,0.3-0.2c0.4-0.2,0.7-0.5,1.1-0.8c0.5-0.4,1.1-0.7,1.5-1.1c0,0,0.1-0.1,0.1-0.1c0.5-0.5,0.9-0.9,1.3-1.4
					c0.1-0.1,0.1-0.2,0.2-0.3c0.1-0.1,0.2-0.2,0.2-0.4c0.1-0.2,0.3-0.4,0.4-0.6c0.2-0.4,0.4-0.8,0.6-1.2c0-0.1,0-0.1,0.1-0.2
					c0-0.1,0-0.2,0.1-0.2c0.1-0.3,0.2-0.5,0.2-0.8c0.1-0.4,0.1-0.8,0.1-1.2c0-0.1,0-0.1,0-0.2l0,0L682.2,806.5z"/>
				<g>
					<linearGradient id="SVGID_2_" gradientUnits="userSpaceOnUse" x1="311.7651" y1="823.5028" x2="682.2125" y2="823.5028">
						<stop  offset="0" style="stop-color:#F1EDEC"/>
						<stop  offset="1" style="stop-color:#ECECEA"/>
					</linearGradient>
					<path class="st7" d="M675.9,797.7c8.4,4.8,8.4,12.7,0.1,17.5L483.2,927.2c-8.3,4.8-21.8,4.8-30.2,0l-134.9-77.9
						c-8.4-4.8-8.4-12.7-0.1-17.5l192.8-112.1c8.3-4.8,21.8-4.8,30.2,0L675.9,797.7z"/>
				</g>
			</g>
		</g>
	</g>
	<g>
		<g>
			<g class="st5">
				<linearGradient id="SVGID_3_" gradientUnits="userSpaceOnUse" x1="392.8552" y1="720.4443" x2="586.0242" y2="720.4443">
					<stop  offset="0" style="stop-color:#D7D8D5"/>
					<stop  offset="1" style="stop-color:#F6F6F9"/>
				</linearGradient>
				<path class="st8" d="M545,554.7C545,554.7,544.9,554.7,545,554.7c-0.3-0.2-0.5-0.3-0.8-0.4c-0.2-0.1-0.5-0.2-0.7-0.3
					c-0.2,0-0.3-0.1-0.5-0.1c0,0-0.1,0-0.1,0c-0.1,0-0.1,0-0.2,0c-0.3,0-0.5-0.1-0.8-0.1c-0.3,0-0.6,0-0.9,0c-0.1,0-0.2,0-0.3,0
					c-0.1,0-0.1,0-0.2,0c-0.2,0-0.4,0-0.5,0.1c-0.4,0.1-0.8,0.1-1.2,0.3c-0.2,0-0.3,0.1-0.5,0.2c-0.2,0-0.3,0.1-0.5,0.2
					c-0.2,0.1-0.4,0.1-0.6,0.2c-0.6,0.3-1.2,0.6-1.9,0.9L406.4,630c-0.9,0.5-1.7,1.1-2.6,1.8c-0.3,0.2-0.5,0.5-0.8,0.7
					c-0.4,0.3-0.8,0.7-1.2,1c-0.2,0.2-0.4,0.4-0.5,0.6c-0.2,0.2-0.3,0.3-0.4,0.5c-0.2,0.2-0.3,0.4-0.5,0.5c-0.4,0.4-0.7,0.9-1.1,1.3
					c-0.1,0.2-0.3,0.3-0.4,0.5c-0.1,0.1-0.1,0.2-0.2,0.3c-0.1,0.2-0.2,0.3-0.3,0.5c-0.3,0.4-0.5,0.8-0.8,1.2
					c-0.2,0.4-0.5,0.8-0.7,1.2c0,0,0,0.1-0.1,0.1c0,0,0,0.1-0.1,0.1c-0.2,0.3-0.4,0.6-0.5,0.9c-0.2,0.4-0.4,0.8-0.6,1.2
					c-0.2,0.4-0.3,0.7-0.5,1.1c0,0,0,0,0,0.1c0,0,0,0,0,0.1c-0.2,0.4-0.3,0.8-0.5,1.2c-0.2,0.4-0.3,0.9-0.5,1.3
					c-0.1,0.2-0.1,0.4-0.2,0.6c0,0.1-0.1,0.2-0.1,0.3c0,0.2-0.1,0.3-0.1,0.5c-0.1,0.5-0.3,1-0.4,1.6c-0.1,0.3-0.1,0.6-0.2,0.9
					c0,0.2-0.1,0.3-0.1,0.5c0,0.2-0.1,0.3-0.1,0.5c-0.1,0.9-0.2,1.8-0.2,2.6l0.6,201c0,4.3,1.5,7.3,4,8.7l41,23.8
					c-2.4-1.4-4-4.4-4-8.7l-0.6-201c0-1,0.1-2.1,0.3-3.1c0-0.2,0.1-0.3,0.1-0.5c0.2-1,0.4-2,0.7-3c0-0.1,0.1-0.2,0.1-0.3
					c0.3-1.1,0.7-2.2,1.2-3.2c0,0,0,0,0-0.1c0.5-1.1,1-2.1,1.6-3.2c0,0,0-0.1,0.1-0.1c0.6-1,1.2-2,1.9-2.9c0.1-0.1,0.1-0.2,0.2-0.3
					c0.6-0.8,1.3-1.6,2-2.4c0.1-0.2,0.3-0.3,0.4-0.5c0.6-0.6,1.1-1.1,1.7-1.6c0.3-0.2,0.5-0.5,0.8-0.7c0.8-0.7,1.7-1.3,2.6-1.8
					l128.9-74.4c0.9-0.5,1.7-0.9,2.5-1.1c0.2-0.1,0.3-0.1,0.5-0.2c0.8-0.2,1.5-0.4,2.2-0.5c0.1,0,0.1,0,0.2,0c0.8-0.1,1.5,0,2.2,0.1
					c0,0,0.1,0,0.1,0c0.7,0.2,1.4,0.4,2,0.7L545,554.7z"/>
				<g>
					<linearGradient id="SVGID_4_" gradientUnits="userSpaceOnUse" x1="433.8941" y1="732.8287" x2="590.5767" y2="732.8287">
						<stop  offset="0" style="stop-color:#FBFBFB"/>
						<stop  offset="1" style="stop-color:#FBFBFB"/>
					</linearGradient>
					<path class="st9" d="M576.4,579.5c7.5-4.3,13.6-0.8,13.7,7.8l0.6,201c0,8.6-6.1,19.2-13.6,23.5l-128.9,74.4
						c-7.5,4.3-13.6,0.8-13.7-7.8l-0.6-201c0-8.6,6.1-19.2,13.6-23.5L576.4,579.5z"/>
				</g>
			</g>
		</g>
	</g>
	<g>
		<g class="st5">
			<linearGradient id="SVGID_5_" gradientUnits="userSpaceOnUse" x1="144.8134" y1="458.0813" x2="749.738" y2="458.0813">
				<stop  offset="0" style="stop-color:#D7D8D5"/>
				<stop  offset="1" style="stop-color:#F6F6F9"/>
			</linearGradient>
			<path class="st10" d="M729,79.3c0.9-0.3,1.8-0.7,2.7-0.9c0.6-0.2,1.1-0.3,1.7-0.5c0.5-0.1,1-0.2,1.5-0.3c0.7-0.1,1.4-0.2,2-0.3
				c0.4,0,0.8-0.1,1.1-0.1c0.9-0.1,1.7-0.1,2.5,0c0.2,0,0.3,0,0.5,0c1,0.1,1.9,0.2,2.8,0.4c0.2,0,0.5,0.1,0.7,0.2
				c0.7,0.2,1.4,0.4,2.1,0.6c0.2,0.1,0.4,0.1,0.6,0.2c0.9,0.3,1.7,0.7,2.5,1.2l-41-23.8c-0.1,0-0.1-0.1-0.2-0.1
				c-0.6-0.3-1.3-0.7-1.9-0.9c-0.1,0-0.2-0.1-0.4-0.1c-0.2-0.1-0.4-0.2-0.7-0.2c-0.3-0.1-0.7-0.3-1-0.4c-0.3-0.1-0.7-0.2-1.1-0.2
				c-0.2-0.1-0.5-0.1-0.7-0.2c-0.1,0-0.3-0.1-0.4-0.1c-0.7-0.1-1.5-0.2-2.3-0.3c0,0-0.1,0-0.1,0c-0.2,0-0.3,0-0.5,0
				c-0.6,0-1.3,0-1.9,0c-0.2,0-0.4,0-0.6,0.1c-0.4,0-0.8,0.1-1.1,0.1c-0.4,0-0.7,0.1-1.1,0.1c-0.3,0-0.6,0.1-0.9,0.2
				c-0.5,0.1-1,0.2-1.5,0.3c-0.3,0.1-0.6,0.1-0.9,0.2c-0.3,0.1-0.6,0.2-0.8,0.3c-0.9,0.3-1.8,0.6-2.7,0.9c-0.3,0.1-0.6,0.2-1,0.3
				c-0.2,0.1-0.4,0.2-0.5,0.3c-1.5,0.7-3.1,1.4-4.7,2.3L182.6,346.5c-1.2,0.7-2.4,1.5-3.6,2.3c-0.4,0.3-0.8,0.5-1.1,0.8
				c-0.8,0.6-1.6,1.2-2.4,1.8c-0.4,0.3-0.9,0.7-1.3,1.1c-0.7,0.6-1.4,1.2-2.1,1.9c-0.4,0.4-0.8,0.8-1.3,1.2
				c-0.3,0.2-0.5,0.5-0.8,0.7c-0.3,0.3-0.5,0.6-0.8,0.9c-0.9,0.9-1.7,1.8-2.5,2.7c-0.3,0.3-0.5,0.5-0.8,0.8
				c-0.2,0.3-0.4,0.5-0.7,0.8c-0.5,0.6-1,1.2-1.5,1.8c-0.3,0.4-0.6,0.7-0.9,1.1c-0.3,0.3-0.5,0.7-0.8,1.1c-0.4,0.5-0.7,1-1.1,1.4
				c-0.2,0.3-0.5,0.6-0.7,1c-0.4,0.6-0.8,1.2-1.2,1.8c-0.2,0.4-0.5,0.7-0.7,1.1c-0.1,0.1-0.2,0.3-0.3,0.4c-0.7,1.1-1.3,2.1-2,3.2
				c0,0.1-0.1,0.2-0.1,0.2c-0.1,0.2-0.3,0.5-0.4,0.7c-0.4,0.8-0.9,1.5-1.3,2.3c-0.2,0.4-0.4,0.7-0.6,1.1c-0.2,0.4-0.4,0.8-0.6,1.1
				c-0.2,0.3-0.3,0.7-0.5,1c-0.4,0.9-0.8,1.7-1.2,2.6c-0.1,0.2-0.2,0.4-0.3,0.6c0,0.1,0,0.1-0.1,0.2c-0.5,1.1-1,2.3-1.4,3.4
				c-0.1,0.2-0.1,0.4-0.2,0.6c-0.2,0.4-0.3,0.8-0.4,1.2c-0.2,0.6-0.4,1.2-0.6,1.8c-0.1,0.4-0.3,0.9-0.4,1.3c-0.2,0.5-0.3,1-0.5,1.6
				c-0.1,0.3-0.2,0.7-0.3,1c-0.2,0.6-0.3,1.1-0.4,1.7c-0.2,0.6-0.3,1.3-0.5,1.9c-0.1,0.2-0.1,0.5-0.2,0.7c-0.1,0.5-0.2,0.9-0.2,1.4
				c-0.2,1-0.4,2-0.5,3c0,0.3-0.1,0.6-0.1,0.9c0,0.3,0,0.5-0.1,0.8c-0.3,2.2-0.4,4.4-0.4,6.6l1.1,402.8c0,11.9,4.3,20.3,11.1,24.3
				l41,23.8c-6.8-4-11.1-12.4-11.1-24.3l-1.1-402.8c0-2.2,0.2-4.4,0.4-6.6c0.1-0.5,0.1-1.1,0.2-1.6c0.1-1,0.3-2,0.5-3
				c0.1-0.7,0.3-1.4,0.4-2.1c0.1-0.6,0.3-1.3,0.5-1.9c0.2-0.9,0.5-1.8,0.7-2.7c0.2-0.5,0.3-1,0.5-1.6c0.3-1,0.7-2,1-3.1
				c0.1-0.4,0.3-0.8,0.4-1.2c0.5-1.4,1.1-2.8,1.7-4.2c0.1-0.2,0.2-0.4,0.2-0.5c0.5-1.2,1.1-2.4,1.7-3.6c0.2-0.4,0.4-0.8,0.6-1.2
				c0.6-1.1,1.2-2.3,1.8-3.4c0.1-0.2,0.3-0.5,0.4-0.7c0.8-1.3,1.6-2.6,2.4-3.9c0.2-0.4,0.5-0.7,0.7-1.1c0.6-0.9,1.2-1.8,1.9-2.7
				c0.4-0.5,0.7-1,1.1-1.5c0.6-0.7,1.1-1.5,1.7-2.2c0.5-0.6,1-1.2,1.5-1.8c0.5-0.6,1-1.1,1.5-1.7c0.8-0.9,1.7-1.8,2.5-2.7
				c0.5-0.5,1.1-1.1,1.6-1.6c0.4-0.4,0.8-0.8,1.3-1.2c0.7-0.6,1.4-1.3,2.2-1.9c0.4-0.4,0.8-0.7,1.3-1.1c0.8-0.6,1.6-1.2,2.4-1.8
				c0.4-0.3,0.7-0.6,1.1-0.8c1.2-0.8,2.4-1.6,3.6-2.3L722.8,82.2c1.6-0.9,3.2-1.7,4.7-2.3C728,79.6,728.5,79.5,729,79.3z"/>
			<g>
				<path class="st11" d="M722.8,82.2c20.8-12,38-2.3,38,21.7l1.1,402.8c0.1,24-16.9,53.5-37.8,65.5L225,860.4
					c-20.8,12-38,2.3-38-21.7l-1.1-402.8c-0.1-24,16.9-53.5,37.8-65.5L722.8,82.2z"/>
			</g>
		</g>
	</g>
	<linearGradient id="SVGID_6_" gradientUnits="userSpaceOnUse" x1="224.5947" y1="472.4899" x2="739.6733" y2="472.4899">
		<stop  offset="0" style="stop-color:#8474F9"/>
		<stop  offset="1" style="stop-color:#A298FE"/>
	</linearGradient>
	<path class="st12" d="M738.7,160.2c-0.1-19.5-14-27.5-31-17.7l-45.5,26.2c-0.3,0.1-0.5,0.2-0.8,0.4L255.4,403.7
		c-17,9.8-30.8,33.8-30.8,53.3l0.9,327.8c0.1,19.5,14,27.5,31,17.7l45.5-26.2c0.3-0.1,0.5-0.2,0.8-0.4l406.2-234.5
		c17-9.8,30.8-33.8,30.8-53.3L738.7,160.2z"/>
	<path class="st13" d="M775.1,183.7c-0.1-19.5-14-27.5-31-17.7l-45.5,26.2c-0.3,0.1-0.5,0.2-0.8,0.4L291.7,427.2
		c-17,9.8-30.8,33.8-30.8,53.3l0.9,327.8c0.1,19.5,14,27.5,31,17.7l45.5-26.2c0.3-0.1,0.5-0.2,0.8-0.4l406.2-234.5
		c17-9.8,30.8-33.8,30.8-53.3L775.1,183.7z"/>
	<g>
		<g class="st5">
			<g class="st5">
				<defs>
					<path id="SVGID_7_" class="st5" d="M605.7,682.3l-33.8-19.7c-0.4-0.2-0.7-0.5-1.1-0.8l33.8,19.7
						C605,681.8,605.4,682,605.7,682.3z"/>
				</defs>
				<linearGradient id="SVGID_8_" gradientUnits="userSpaceOnUse" x1="570.8228" y1="672.0633" x2="605.7482" y2="672.0633">
					<stop  offset="0" style="stop-color:#7365E0"/>
					<stop  offset="1" style="stop-color:#9180F2"/>
				</linearGradient>
				<use xlink:href="#SVGID_7_"  style="overflow:visible;fill:url(#SVGID_8_);"/>
				<clipPath id="SVGID_9_">
					<use xlink:href="#SVGID_7_"  style="overflow:visible;"/>
				</clipPath>
				<g class="st14">
					<linearGradient id="SVGID_10_" gradientUnits="userSpaceOnUse" x1="570.8228" y1="672.0633" x2="605.7482" y2="672.0633">
						<stop  offset="0" style="stop-color:#7365E0"/>
						<stop  offset="1" style="stop-color:#9180F2"/>
					</linearGradient>
					<path class="st15" d="M605.7,682.3l-33.8-19.7c-0.4-0.2-0.7-0.5-1.1-0.8l33.8,19.7C605,681.8,605.4,682,605.7,682.3"/>
				</g>
			</g>
			<g class="st5">
				<defs>
					<path id="SVGID_11_" class="st5" d="M568,660l33.8,19.7c1.1,0.7,2.1,1.3,2.9,1.9l-33.8-19.7C570.1,661.3,569.1,660.7,568,660z"
						/>
				</defs>
				<linearGradient id="SVGID_12_" gradientUnits="userSpaceOnUse" x1="567.9564" y1="670.7605" x2="604.653" y2="670.7605">
					<stop  offset="0" style="stop-color:#7365E0"/>
					<stop  offset="1" style="stop-color:#9180F2"/>
				</linearGradient>
				<use xlink:href="#SVGID_11_"  style="overflow:visible;fill:url(#SVGID_12_);"/>
				<clipPath id="SVGID_13_">
					<use xlink:href="#SVGID_11_"  style="overflow:visible;"/>
				</clipPath>
				<g class="st16">
					<linearGradient id="SVGID_14_" gradientUnits="userSpaceOnUse" x1="567.9564" y1="670.7605" x2="604.653" y2="670.7605">
						<stop  offset="0" style="stop-color:#7365E0"/>
						<stop  offset="1" style="stop-color:#9180F2"/>
					</linearGradient>
					<path class="st17" d="M604.7,681.5l-33.8-19.7c-0.8-0.6-1.7-1.2-2.9-1.9l33.8,19.7C602.9,680.3,603.9,681,604.7,681.5"/>
				</g>
			</g>
			<linearGradient id="SVGID_15_" gradientUnits="userSpaceOnUse" x1="649.8319" y1="387.174" x2="723.1931" y2="387.174">
				<stop  offset="0" style="stop-color:#7365E0"/>
				<stop  offset="1" style="stop-color:#9180F2"/>
			</linearGradient>
			<path class="st18" d="M689.4,374.4C689.3,374.4,689.3,374.4,689.4,374.4c-0.3-0.2-0.6-0.3-0.9-0.4c-0.3-0.1-0.5-0.2-0.8-0.3
				c-0.1,0-0.1,0-0.2,0c0,0-0.1,0-0.1,0c-0.1,0-0.3-0.1-0.4-0.1c-0.3,0-0.5-0.1-0.8-0.1c-0.3,0-0.5,0-0.8,0c0,0,0,0,0,0c0,0,0,0,0,0
				c-0.3,0-0.6,0-0.9,0.1c-0.3,0-0.6,0.1-1,0.2c-0.1,0-0.2,0.1-0.2,0.1c-0.1,0-0.2,0.1-0.3,0.1c-0.2,0.1-0.5,0.1-0.7,0.2
				c-0.5,0.2-0.9,0.4-1.4,0.7l-1.5,0.8c-1.7,1-3.4,1.8-5.1,2.5c-0.5,0.2-1.1,0.4-1.6,0.6c-1,0.4-1.9,0.7-2.9,1
				c-0.6,0.2-1.3,0.4-1.9,0.5c-0.6,0.1-1.1,0.3-1.7,0.4c-0.8,0.1-1.5,0.3-2.2,0.3c-0.4,0-0.8,0.1-1.2,0.1c-1,0.1-2,0.1-2.9,0
				c-0.1,0-0.2,0-0.3,0c-1.1-0.1-2.1-0.2-3.1-0.4c-0.3-0.1-0.5-0.1-0.8-0.2c-0.8-0.2-1.5-0.4-2.3-0.7c-0.2-0.1-0.5-0.2-0.7-0.3
				c-1-0.4-1.9-0.8-2.8-1.3l33.8,19.7c0.1,0,0.2,0.1,0.2,0.1c0.7,0.4,1.4,0.7,2.2,1.1c0.1,0.1,0.3,0.1,0.4,0.1
				c0.2,0.1,0.5,0.2,0.7,0.3c0.4,0.1,0.8,0.3,1.2,0.4c0.4,0.1,0.7,0.2,1.1,0.3c0.3,0.1,0.5,0.1,0.8,0.2c0.2,0,0.3,0.1,0.5,0.1
				c0.8,0.1,1.7,0.2,2.6,0.3c0,0,0,0,0.1,0c0.1,0,0.2,0,0.3,0c0.8,0,1.6,0.1,2.4,0c0.2,0,0.4,0,0.6-0.1c0.4,0,0.8-0.1,1.2-0.1
				c0.4,0,0.9-0.1,1.3-0.1c0.3,0,0.6-0.1,0.9-0.2c0.6-0.1,1.1-0.2,1.7-0.4c0.3-0.1,0.7-0.1,1-0.2c0.3-0.1,0.6-0.2,0.9-0.3
				c1-0.3,1.9-0.6,2.9-1c0.4-0.1,0.7-0.2,1.1-0.4c0.2-0.1,0.4-0.2,0.6-0.3c1.7-0.7,3.4-1.5,5.1-2.5l1.5-0.8c0.7-0.4,1.4-0.7,2.1-0.9
				c0.1,0,0.2-0.1,0.3-0.1c0.7-0.2,1.4-0.3,2.1-0.4c0,0,0,0,0,0c0.7,0,1.3,0,2,0.2c0,0,0.1,0,0.1,0c0.6,0.2,1.3,0.4,1.8,0.8
				L689.4,374.4z"/>
			<linearGradient id="SVGID_16_" gradientUnits="userSpaceOnUse" x1="497.3704" y1="523.9297" x2="627.0676" y2="523.9297">
				<stop  offset="0" style="stop-color:#7365E0"/>
				<stop  offset="1" style="stop-color:#9180F2"/>
			</linearGradient>
			<path class="st19" d="M626.3,510.5c0.1-0.9,0.2-1.9,0.3-2.8c0.1-0.7,0.1-1.3,0.2-2c0.2-2.1,0.3-4.2,0.2-6.2
				c-0.1-17.7-6.3-30.2-16.4-36l-33.8-19.7c10.1,5.9,16.3,18.3,16.4,36c0,2-0.1,4.1-0.2,6.2c0,0.7-0.1,1.3-0.2,2
				c-0.1,1.3-0.3,2.7-0.5,4c-0.2,1.5-0.5,3-0.8,4.5c-0.2,1-0.4,2-0.6,3.1c-0.2,1-0.5,1.9-0.7,2.9c-0.3,1.3-0.7,2.7-1.1,4
				c-0.2,0.8-0.5,1.5-0.7,2.3c-0.5,1.5-1,3-1.5,4.5c-0.2,0.6-0.4,1.2-0.7,1.9c-0.8,2.1-1.6,4.1-2.5,6.2c-0.1,0.2-0.2,0.5-0.3,0.7
				c-0.8,1.8-1.7,3.7-2.6,5.5c-0.3,0.6-0.6,1.1-0.9,1.7c-0.9,1.7-1.8,3.4-2.7,5.1c-0.2,0.3-0.4,0.6-0.5,1c-1.1,1.9-2.3,3.9-3.5,5.7
				c-0.4,0.5-0.7,1.1-1.1,1.6c-0.9,1.4-1.8,2.7-2.8,4c-0.5,0.7-1,1.4-1.6,2.1c-0.8,1.1-1.7,2.2-2.5,3.2c-0.7,0.9-1.4,1.8-2.2,2.7
				c-0.7,0.8-1.4,1.6-2.1,2.4c-1.2,1.4-2.5,2.7-3.7,4c-0.8,0.8-1.6,1.6-2.4,2.4c-0.6,0.6-1.3,1.2-1.9,1.8c-1,1-2.1,1.9-3.2,2.8
				c-0.6,0.5-1.3,1.1-1.9,1.6c-1.2,0.9-2.3,1.8-3.5,2.7c-0.6,0.4-1.1,0.8-1.7,1.2c-1.8,1.2-3.5,2.4-5.4,3.4c-1.7,1-3.5,1.9-5.1,2.7
				c-0.4,0.2-0.9,0.4-1.3,0.6c-0.9,0.4-1.9,0.8-2.8,1.1c-1.3,0.5-2.7,1-4,1.4c-0.8,0.3-1.7,0.5-2.5,0.7c-0.8,0.2-1.5,0.3-2.3,0.5
				c-1,0.2-2,0.3-3,0.5c-0.6,0.1-1.1,0.1-1.7,0.2c-1.2,0.1-2.4,0.1-3.6,0.1c-0.3,0-0.6,0-0.8,0c-1.4-0.1-2.8-0.3-4.1-0.5
				c-0.3-0.1-0.7-0.2-1-0.2c-1.1-0.2-2.1-0.5-3.1-0.9c-0.3-0.1-0.6-0.2-0.9-0.3c-1.3-0.5-2.5-1.1-3.7-1.7l33.8,19.7
				c0.1,0.1,0.2,0.1,0.3,0.2c0.9,0.5,1.8,1,2.8,1.4c0.2,0.1,0.4,0.1,0.6,0.2c0.3,0.1,0.6,0.2,0.9,0.3c0.5,0.2,1,0.4,1.5,0.5
				c0.5,0.2,1.1,0.3,1.6,0.4c0.3,0.1,0.7,0.2,1,0.2c0.2,0,0.3,0.1,0.5,0.1c1.1,0.2,2.2,0.3,3.4,0.4c0.1,0,0.2,0,0.2,0
				c0.3,0,0.6,0,0.8,0c0.9,0,1.8,0.1,2.7,0c0.3,0,0.6-0.1,0.9-0.1c0.6,0,1.1-0.1,1.7-0.2c0.5-0.1,1-0.1,1.6-0.2
				c0.5-0.1,0.9-0.2,1.4-0.3c0.8-0.1,1.5-0.3,2.3-0.5c0.4-0.1,0.8-0.1,1.2-0.3c0.4-0.1,0.8-0.3,1.3-0.4c1.3-0.4,2.6-0.8,4-1.4
				c0.5-0.2,0.9-0.3,1.4-0.5c0.5-0.2,0.9-0.4,1.4-0.6c0.4-0.2,0.9-0.4,1.3-0.6c1.7-0.8,3.4-1.7,5.1-2.7c1.8-1,3.6-2.2,5.4-3.4
				c0.6-0.4,1.1-0.8,1.7-1.2c1.2-0.9,2.4-1.7,3.5-2.7c0.6-0.5,1.3-1.1,1.9-1.6c1.1-0.9,2.1-1.8,3.2-2.8c0.6-0.6,1.3-1.2,1.9-1.8
				c0.4-0.4,0.8-0.7,1.2-1.1c0.4-0.4,0.8-0.9,1.2-1.3c1.3-1.3,2.5-2.6,3.7-4c0.4-0.4,0.8-0.8,1.2-1.3c0.3-0.4,0.6-0.8,0.9-1.1
				c0.7-0.9,1.5-1.8,2.2-2.7c0.5-0.6,1-1.1,1.4-1.7c0.4-0.5,0.7-1,1.1-1.5c0.5-0.7,1-1.4,1.6-2.1c0.4-0.5,0.7-1,1.1-1.5
				c0.6-0.8,1.1-1.7,1.7-2.5c0.4-0.5,0.7-1.1,1.1-1.6c0.1-0.2,0.3-0.5,0.5-0.7c1-1.6,2-3.1,2.9-4.7c0.1-0.1,0.1-0.2,0.2-0.3
				c0.2-0.3,0.4-0.6,0.5-1c0.6-1.1,1.3-2.3,1.9-3.4c0.3-0.5,0.5-1.1,0.8-1.6c0.3-0.6,0.6-1.1,0.9-1.7c0.2-0.5,0.5-1,0.7-1.5
				c0.6-1.3,1.2-2.7,1.8-4c0.1-0.2,0.2-0.5,0.3-0.7c0-0.1,0.1-0.1,0.1-0.2c0.7-1.7,1.4-3.3,2.1-5c0.1-0.3,0.2-0.6,0.3-0.9
				c0.2-0.6,0.4-1.2,0.7-1.9c0.3-0.8,0.6-1.7,0.9-2.5c0.2-0.7,0.4-1.3,0.6-2c0.2-0.8,0.5-1.5,0.7-2.3c0.1-0.5,0.3-0.9,0.4-1.4
				c0.2-0.9,0.4-1.7,0.6-2.6c0.2-1,0.5-1.9,0.7-2.9c0.1-0.3,0.2-0.7,0.2-1c0.1-0.7,0.2-1.4,0.4-2.1c0.3-1.5,0.6-3,0.8-4.5
				C626.2,511.3,626.3,510.9,626.3,510.5z"/>
			<g class="st5">
				<defs>
					<path id="SVGID_17_" class="st5" d="M637.8,308.6l33.8,19.7c-1.1-0.6-2.3-1-3.7-1.1l-33.8-19.7
						C635.5,307.6,636.8,308,637.8,308.6z"/>
				</defs>
				<linearGradient id="SVGID_18_" gradientUnits="userSpaceOnUse" x1="634.1581" y1="317.878" x2="671.665" y2="317.878">
					<stop  offset="0" style="stop-color:#7365E0"/>
					<stop  offset="1" style="stop-color:#9180F2"/>
				</linearGradient>
				<use xlink:href="#SVGID_17_"  style="overflow:visible;fill:url(#SVGID_18_);"/>
				<clipPath id="SVGID_19_">
					<use xlink:href="#SVGID_17_"  style="overflow:visible;"/>
				</clipPath>
				<g class="st20">
					<linearGradient id="SVGID_20_" gradientUnits="userSpaceOnUse" x1="634.1581" y1="317.354" x2="668.1362" y2="317.354">
						<stop  offset="0" style="stop-color:#7365E0"/>
						<stop  offset="1" style="stop-color:#9180F2"/>
					</linearGradient>
					<path class="st21" d="M668,327.2l-33.8-19.7c0,0,0.1,0,0.1,0l33.8,19.7C668.1,327.2,668,327.2,668,327.2"/>
					<linearGradient id="SVGID_21_" gradientUnits="userSpaceOnUse" x1="634.306" y1="317.4128" x2="669.0683" y2="317.4128">
						<stop  offset="0" style="stop-color:#7365E0"/>
						<stop  offset="1" style="stop-color:#9180F2"/>
					</linearGradient>
					<path class="st22" d="M668.1,327.2l-33.8-19.7c0.3,0,0.6,0.1,0.9,0.1l33.8,19.7C668.8,327.2,668.5,327.2,668.1,327.2"/>
					<linearGradient id="SVGID_22_" gradientUnits="userSpaceOnUse" x1="635.2381" y1="317.5682" x2="669.9421" y2="317.5682">
						<stop  offset="0" style="stop-color:#7365E0"/>
						<stop  offset="1" style="stop-color:#9180F2"/>
					</linearGradient>
					<path class="st23" d="M669.1,327.3l-33.8-19.7c0.3,0.1,0.6,0.1,0.9,0.2l33.8,19.7C669.7,327.4,669.4,327.3,669.1,327.3"/>
					<linearGradient id="SVGID_23_" gradientUnits="userSpaceOnUse" x1="636.1119" y1="317.8166" x2="670.7771" y2="317.8166">
						<stop  offset="0" style="stop-color:#7365E0"/>
						<stop  offset="1" style="stop-color:#9180F2"/>
					</linearGradient>
					<path class="st24" d="M669.9,327.5l-33.8-19.7c0.3,0.1,0.6,0.2,0.8,0.3l33.8,19.7C670.5,327.7,670.2,327.6,669.9,327.5"/>
					<linearGradient id="SVGID_24_" gradientUnits="userSpaceOnUse" x1="636.9469" y1="318.1614" x2="671.5825" y2="318.1614">
						<stop  offset="0" style="stop-color:#7365E0"/>
						<stop  offset="1" style="stop-color:#9180F2"/>
					</linearGradient>
					<path class="st25" d="M670.8,327.8l-33.8-19.7c0.3,0.1,0.5,0.2,0.8,0.4l33.8,19.7C671.3,328,671.1,327.9,670.8,327.8"/>
					<linearGradient id="SVGID_25_" gradientUnits="userSpaceOnUse" x1="637.7524" y1="318.3824" x2="671.665" y2="318.3824">
						<stop  offset="0" style="stop-color:#7365E0"/>
						<stop  offset="1" style="stop-color:#9180F2"/>
					</linearGradient>
					<path class="st26" d="M671.6,328.2l-33.8-19.7c0,0,0.1,0,0.1,0L671.6,328.2C671.6,328.2,671.6,328.2,671.6,328.2"/>
				</g>
			</g>
			<linearGradient id="SVGID_26_" gradientUnits="userSpaceOnUse" x1="424.437" y1="691.2097" x2="470.8521" y2="691.2097">
				<stop  offset="0" style="stop-color:#7365E0"/>
				<stop  offset="1" style="stop-color:#9180F2"/>
			</linearGradient>
			<path class="st27" d="M466,730.1c0-0.1-0.1-0.2-0.1-0.3c-0.2-0.6-0.4-1.3-0.5-2c0-0.2-0.1-0.5-0.1-0.7c-0.1-0.6-0.1-1.3-0.1-2
				c0-0.2,0-0.4,0-0.7c0-0.9,0.1-1.8,0.2-2.8c0-0.2,0.1-0.3,0.1-0.5c0.1-0.9,0.3-1.8,0.6-2.7c0-0.1,0-0.1,0.1-0.2
				c0.3-1.1,0.7-2.2,1.1-3.3c0-0.1,0.1-0.3,0.2-0.6c0-0.1,0.1-0.2,0.1-0.4c0-0.2,0.1-0.3,0.1-0.5c0.1-0.2,0.1-0.4,0.2-0.6
				c0-0.1,0.1-0.2,0.1-0.4c0.2-0.6,0.3-1.3,0.5-2c0-0.2,0.1-0.3,0.1-0.5c0.2-0.7,0.3-1.4,0.5-2.1c0-0.2,0.1-0.4,0.1-0.6
				c0-0.1,0.1-0.3,0.1-0.4c0.1-0.4,0.2-0.8,0.2-1.2c0.1-0.6,0.2-1.1,0.3-1.8c0.1-0.5,0.2-1.1,0.3-1.6c0.1-0.6,0.2-1.2,0.3-1.9
				c0-0.1,0-0.3,0.1-0.4c0-0.1,0-0.3,0-0.4c0.2-1.9,0.4-3.8,0.4-5.5c0-13.6-4.9-23.1-12.6-27.6l-33.8-19.7
				c7.7,4.5,12.5,14,12.6,27.6c0,1.7-0.2,3.6-0.4,5.5c0,0.3-0.1,0.6-0.1,0.9c-0.1,0.6-0.2,1.2-0.3,1.8c-0.1,0.5-0.2,1.1-0.3,1.6
				c-0.1,0.6-0.2,1.2-0.3,1.8c-0.1,0.5-0.2,1.1-0.3,1.6c0,0.2-0.1,0.4-0.1,0.6c-0.2,0.7-0.3,1.4-0.5,2.1c0,0.2-0.1,0.3-0.1,0.5
				c-0.2,0.7-0.4,1.4-0.5,2c0,0.1-0.1,0.2-0.1,0.4c-0.1,0.5-0.2,0.9-0.3,1.2c0,0.1-0.1,0.2-0.1,0.3c-0.1,0.3-0.2,0.5-0.2,0.6
				c0,0.1-0.1,0.2-0.1,0.4c-0.2,0.4-0.3,0.9-0.5,1.3c-0.2,0.5-0.3,1-0.4,1.5c0,0,0,0.1,0,0.1c0,0.1,0,0.1-0.1,0.2
				c-0.1,0.4-0.2,0.9-0.3,1.3c-0.1,0.5-0.2,1-0.2,1.5c0,0.2-0.1,0.3-0.1,0.5c0,0.1,0,0.1,0,0.2c-0.1,0.9-0.2,1.7-0.2,2.5
				c0,0.2,0,0.4,0,0.6c0,0.7,0.1,1.3,0.1,2c0,0.2,0.1,0.5,0.1,0.7c0.1,0.7,0.3,1.4,0.5,2c0,0.1,0,0.2,0.1,0.3c0.2,0.7,0.5,1.4,0.9,2
				c0.1,0.2,0.2,0.3,0.3,0.5c0.3,0.4,0.6,0.9,0.9,1.2c0.1,0.1,0.3,0.3,0.4,0.4c0.5,0.5,1,0.9,1.6,1.2c0,0,0,0,0,0l33.8,19.7
				c-0.6-0.3-1.1-0.8-1.6-1.2c-0.1-0.1-0.3-0.3-0.4-0.4c-0.3-0.4-0.7-0.8-0.9-1.2c-0.1-0.2-0.2-0.3-0.3-0.5
				C466.5,731.5,466.2,730.9,466,730.1z"/>
			<path class="st28" d="M528.5,550.4c0.1-1,0.2-2,0.4-3c0.2-1.1,0.3-2.2,0.6-3.2c0.2-0.8,0.3-1.7,0.5-2.5c0.2-0.7,0.3-1.4,0.5-2.2
				c0.3-1,0.5-2.1,0.9-3.1c0.2-0.6,0.3-1.2,0.5-1.8c0.4-1.2,0.8-2.5,1.3-3.7c0.1-0.4,0.3-0.8,0.4-1.2c0.6-1.6,1.2-3.2,1.9-4.7
				c0.2-0.4,0.3-0.7,0.5-1.1c0.6-1.3,1.2-2.5,1.8-3.7c0.2-0.4,0.4-0.9,0.7-1.3c0.8-1.5,1.5-2.9,2.4-4.3c0.1-0.1,0.1-0.2,0.2-0.3
				c0.9-1.5,1.8-3,2.7-4.4c0.3-0.5,0.6-0.9,0.9-1.4c0.7-1,1.4-2,2-2.9c0.4-0.6,0.8-1.1,1.3-1.7c0.6-0.8,1.2-1.6,1.9-2.4
				c0.6-0.7,1.2-1.4,1.7-2.1c0.5-0.6,1.1-1.2,1.6-1.8c1-1.1,1.9-2.1,2.9-3.1c0.6-0.6,1.2-1.2,1.7-1.8c0.5-0.4,0.9-0.9,1.4-1.3
				c0.8-0.7,1.6-1.4,2.4-2.1c0.5-0.4,0.9-0.8,1.4-1.2c0.9-0.7,1.8-1.4,2.6-2c0.4-0.3,0.8-0.6,1.2-0.9c1.3-0.9,2.6-1.8,4-2.5
				c1.7-1,3.4-1.8,5.1-2.6c0.6-0.2,1.1-0.4,1.7-0.7c1-0.4,2-0.7,2.9-1c0.7-0.2,1.3-0.4,2-0.5c0.6-0.1,1.2-0.3,1.7-0.4
				c0.8-0.1,1.5-0.3,2.3-0.3c0.4,0,0.8-0.1,1.3-0.1c1-0.1,2.1-0.1,3,0c0.1,0,0.2,0,0.3,0c1.1,0.1,2.2,0.2,3.2,0.4
				c0.3,0.1,0.6,0.1,0.8,0.2c0.8,0.2,1.6,0.4,2.3,0.7c0.2,0.1,0.5,0.2,0.7,0.3c1,0.4,1.9,0.8,2.9,1.4l-33.8-19.7
				c-0.1,0-0.2-0.1-0.2-0.1c-0.7-0.4-1.5-0.8-2.2-1.1c-0.1-0.1-0.3-0.1-0.4-0.1c-0.2-0.1-0.5-0.2-0.7-0.3c-0.4-0.1-0.8-0.3-1.2-0.4
				c-0.4-0.1-0.8-0.2-1.2-0.3c-0.3-0.1-0.5-0.1-0.8-0.2c-0.2,0-0.3-0.1-0.5-0.1c-0.9-0.1-1.7-0.3-2.6-0.3c0,0,0,0-0.1,0
				c-0.1,0-0.2,0-0.3,0c-0.8,0-1.6-0.1-2.5,0c-0.2,0-0.4,0-0.6,0.1c-0.4,0-0.8,0.1-1.3,0.1c-0.5,0-0.9,0.1-1.4,0.1
				c-0.3,0-0.6,0.1-0.9,0.2c-0.6,0.1-1.2,0.2-1.7,0.4c-0.4,0.1-0.7,0.1-1.1,0.2c-0.3,0.1-0.6,0.2-0.9,0.3c-1,0.3-2,0.6-2.9,1
				c-0.4,0.1-0.7,0.2-1.1,0.4c-0.2,0.1-0.4,0.2-0.6,0.3c-1.7,0.7-3.4,1.6-5.1,2.6c-1.3,0.8-2.6,1.6-4,2.5c-0.4,0.3-0.8,0.6-1.2,0.9
				c-0.9,0.6-1.8,1.3-2.6,2c-0.5,0.4-1,0.8-1.4,1.2c-0.8,0.7-1.6,1.4-2.4,2.1c-0.5,0.4-0.9,0.9-1.4,1.3c-0.3,0.3-0.6,0.5-0.8,0.8
				c-0.3,0.3-0.6,0.7-0.9,1c-1,1-2,2-2.9,3.1c-0.3,0.3-0.6,0.6-0.9,0.9c-0.3,0.3-0.5,0.6-0.7,0.9c-0.6,0.7-1.2,1.4-1.7,2.1
				c-0.4,0.4-0.7,0.9-1.1,1.3c-0.3,0.4-0.5,0.7-0.8,1.1c-0.4,0.6-0.8,1.1-1.3,1.7c-0.3,0.4-0.6,0.8-0.9,1.2
				c-0.4,0.6-0.8,1.2-1.2,1.8c-0.3,0.5-0.6,0.9-0.9,1.4c-0.1,0.2-0.3,0.4-0.4,0.6c-0.8,1.2-1.5,2.5-2.3,3.7c0,0,0,0,0,0.1
				c0,0.1-0.1,0.2-0.1,0.3c-0.6,1.1-1.3,2.2-1.9,3.4c-0.2,0.3-0.3,0.6-0.5,0.9c-0.2,0.4-0.4,0.9-0.7,1.3c-0.2,0.5-0.5,1-0.7,1.5
				c-0.4,0.7-0.7,1.5-1,2.3c-0.2,0.4-0.3,0.7-0.5,1.1c-0.1,0.2-0.1,0.3-0.2,0.5c-0.6,1.3-1.1,2.6-1.6,3.9c0,0.1-0.1,0.3-0.1,0.4
				c-0.1,0.4-0.3,0.8-0.4,1.1c-0.3,0.8-0.6,1.7-0.9,2.5c-0.1,0.4-0.2,0.8-0.4,1.2c-0.2,0.6-0.4,1.2-0.5,1.7c-0.1,0.5-0.3,1-0.4,1.4
				c-0.2,0.6-0.3,1.1-0.4,1.7c-0.2,0.7-0.4,1.4-0.5,2.2c-0.1,0.3-0.2,0.7-0.2,1c-0.1,0.5-0.2,1-0.3,1.5c-0.2,1.1-0.4,2.2-0.6,3.2
				c-0.1,0.4-0.1,0.7-0.2,1.1c-0.1,0.6-0.1,1.3-0.2,1.9c0,0.5-0.1,1-0.1,1.5c-0.1,1.6-0.2,3.1-0.2,4.7c0,13.5,4.8,23,12.5,27.4
				l33.8,19.7c-7.7-4.5-12.5-14-12.5-27.4c0-1.5,0.1-3.1,0.2-4.7C528.4,551.4,528.4,550.9,528.5,550.4z"/>
			<g>
				<linearGradient id="SVGID_27_" gradientUnits="userSpaceOnUse" x1="409.2937" y1="532.3511" x2="733.3776" y2="532.3511">
					<stop  offset="0" style="stop-color:#8474F9"/>
					<stop  offset="1" style="stop-color:#A298FE"/>
				</linearGradient>
				<path class="st29" d="M728.8,404.2c0,0.8,3.8,19.1,4.5,33.1c0,16.1-3.6,38.6-3.6,39.5c-2.2,12.3-7.3,22.1-14,25.9l-1.5,0.9
					c-22.9,13.2-42,47.2-41.9,73.5c0,9.3,3.6,16.2,3.8,16.5c3,6.8,0.8,19.9-6.6,30.1l-41.3,50.2c-2.2,2.1-5.2,4.7-8.1,6.4
					c-6.7,3.8-11.8,4.3-15.5,1.3c-5.2-3.8-20.7-11.8-34-4.1c-12.5,7.2-28.8,33.6-33.9,42.5c-4.4,7.6-9.6,13.2-15.5,16.6
					c-2.2,1.3-5.2,3-7.4,2.6l-39.9-2.4c-8.1-0.4-11.1-10.6-6.7-21.6c0.2-0.6,3.7-12.3,3.7-20.8c-0.1-27.2-19.3-38.1-42.2-24.9
					l-1.5,0.8c-6.7,3.8-12.6-0.4-14.1-9.7c0-0.8-3.7-19.1-3.8-35.2c0-15.2,3.6-37.8,3.6-38.6c2.2-11.5,7.3-22,14-25.9
					c23.6-13.6,42.7-47.6,42.7-73.9c0-9.3-3.6-16.2-3.8-16.5c-3.7-6.4-0.8-20.8,5.8-30.6l42.7-51c2.2-2.1,5.2-4.7,8.1-6.4
					c5.9-3.4,11.8-4.3,15.5-0.5c5.2,3.8,20.7,10.1,33.3,2.9c12.6-7.3,28-31.5,33.2-40.4c3.7-7.2,8.8-12.7,14.7-16.1
					c2.2-1.3,5.2-2.1,7.4-2.6l41.4,1.6c8.1,0.4,11.1,11.4,6.7,22.4c-0.2,0.6-3.7,12.3-3.7,20.8c0.1,27.2,19.4,38.1,42.2,24.9
					l1.5-0.8C721.4,390.7,727.3,394.9,728.8,404.2z M571.1,596.4c31-17.9,56-61.2,55.9-96.9c-0.1-35.6-25.3-50-56.3-32.1
					c-31,17.9-56,61.2-55.9,96.9C514.9,599.9,540.1,614.3,571.1,596.4"/>
			</g>
			<g>
				<linearGradient id="SVGID_28_" gradientUnits="userSpaceOnUse" x1="528.1407" y1="531.9704" x2="613.7671" y2="531.9704">
					<stop  offset="4.950495e-03" style="stop-color:#EFF0F4"/>
					<stop  offset="1" style="stop-color:#FEFFFF"/>
				</linearGradient>
				<path class="st30" d="M570.8,482.7c22.9-13.2,42.9-2.7,43,24.5c0.1,27.2-19.8,60.7-42.7,73.9c-23.6,13.6-42.9,2.7-43-24.5
					C528.1,529.4,547.9,495.9,570.8,482.7z"/>
			</g>
			<linearGradient id="SVGID_29_" gradientUnits="userSpaceOnUse" x1="375.4637" y1="488.2432" x2="667.9883" y2="488.2432">
				<stop  offset="0" style="stop-color:#7365E0"/>
				<stop  offset="1" style="stop-color:#9180F2"/>
			</linearGradient>
			<path class="st31" d="M624.3,326.1c0.1,0,0.2-0.1,0.4-0.1c0.7-0.2,1.3-0.3,1.9-0.4l41.4,1.6l-33.8-19.7l-41.4-1.6
				c-0.6,0.1-1.3,0.3-1.9,0.4c-0.1,0-0.1,0-0.1,0c-0.1,0-0.1,0.1-0.2,0.1c-0.9,0.3-1.9,0.6-2.8,0.9c-0.1,0-0.2,0.1-0.3,0.1
				c0,0-0.1,0-0.1,0.1c-0.7,0.3-1.3,0.6-1.9,0.9c-1.4,0.8-2.7,1.7-4,2.7c-0.4,0.3-0.8,0.7-1.2,1c-0.6,0.5-1.2,1-1.8,1.6
				c-0.3,0.3-0.6,0.7-1,1c-0.2,0.2-0.3,0.4-0.5,0.5c-0.2,0.2-0.4,0.4-0.5,0.6c-0.5,0.6-1,1.1-1.4,1.7c-0.4,0.5-0.8,1.1-1.2,1.6
				c0,0.1-0.1,0.1-0.1,0.2c0,0-0.1,0.1-0.1,0.1c-0.3,0.4-0.5,0.8-0.8,1.2c-0.3,0.5-0.6,1-0.9,1.6c-0.3,0.5-0.6,1.1-0.9,1.6
				c-0.1,0.2-0.2,0.4-0.3,0.6c-0.2,0.3-0.4,0.7-0.6,1.1c-0.4,0.8-0.9,1.6-1.5,2.5c-0.1,0.1-0.1,0.2-0.2,0.3c-0.6,1-1.3,2.1-2,3.2
				c-0.2,0.3-0.4,0.6-0.6,0.9c-0.6,0.9-1.2,1.9-1.9,2.9c-0.2,0.2-0.3,0.4-0.5,0.7c-0.8,1.2-1.7,2.4-2.5,3.7
				c-0.1,0.2-0.3,0.4-0.4,0.6c-1.5,2.2-3.1,4.3-4.8,6.5c-0.2,0.2-0.3,0.4-0.5,0.6c-1.4,1.8-2.8,3.5-4.3,5.2
				c-0.2,0.2-0.4,0.5-0.6,0.7c-1.4,1.6-2.7,3-4.1,4.4c-0.3,0.3-0.6,0.6-1,0.9c-0.3,0.3-0.6,0.6-0.9,0.9c-0.5,0.4-1,0.9-1.4,1.3
				c-0.3,0.3-0.6,0.5-0.9,0.8c-0.5,0.4-1,0.8-1.5,1.2c-0.2,0.2-0.5,0.4-0.7,0.6c-0.8,0.5-1.5,1-2.2,1.5c-1.2,0.7-2.5,1.3-3.8,1.7
				c-0.3,0.1-0.7,0.2-1,0.4c-1.3,0.4-2.6,0.7-3.9,0.9c-0.1,0-0.2,0-0.3,0c-1.2,0.2-2.4,0.2-3.6,0.2c-0.4,0-0.9,0-1.3,0
				c-0.9,0-1.7-0.1-2.6-0.2c-0.5-0.1-1.1-0.1-1.6-0.2c-0.7-0.1-1.4-0.3-2-0.4c-0.8-0.2-1.5-0.3-2.2-0.5c-0.5-0.1-1.1-0.3-1.6-0.5
				c-0.9-0.3-1.8-0.6-2.7-0.9c-0.1,0-0.2-0.1-0.3-0.1l-8-4.7c0,0-0.1,0-0.1-0.1c-0.3-0.2-0.5-0.3-0.8-0.4c-0.1-0.1-0.3-0.1-0.4-0.1
				c-0.1,0-0.2-0.1-0.2-0.1c-0.1,0-0.2-0.1-0.2-0.1c-0.3-0.1-0.6-0.2-0.9-0.2c-0.1,0-0.1,0-0.2,0c-0.1,0-0.2,0-0.3,0
				c-0.2,0-0.4-0.1-0.6-0.1c-0.2,0-0.4,0-0.6,0c-0.1,0-0.2,0-0.4,0c-0.1,0-0.1,0-0.2,0c-0.5,0-0.9,0.1-1.4,0.1c0,0,0,0,0,0
				c-0.1,0-0.2,0.1-0.4,0.1c-0.5,0.1-0.9,0.2-1.4,0.3c0,0,0,0,0,0c-0.7,0.2-1.5,0.5-2.2,0.8c-0.1,0-0.1,0-0.2,0.1
				c-0.1,0-0.2,0.1-0.3,0.2c-1,0.4-1.9,0.9-2.9,1.4c-2.9,1.7-5.9,4.2-8.1,6.4l-42.7,51c-0.2,0.3-0.4,0.6-0.6,0.8
				c-0.3,0.5-0.6,0.9-0.8,1.4c-0.3,0.5-0.6,1-0.8,1.5c0,0,0,0.1-0.1,0.1c0,0,0,0.1-0.1,0.1c-0.2,0.4-0.5,0.9-0.7,1.3
				c-0.3,0.6-0.5,1.1-0.8,1.7c-0.1,0.3-0.2,0.5-0.3,0.8c-0.1,0.1-0.1,0.3-0.2,0.4c-0.1,0.2-0.2,0.4-0.3,0.6c-0.3,0.7-0.5,1.4-0.7,2
				c-0.1,0.4-0.2,0.7-0.3,1.1c-0.1,0.2-0.1,0.4-0.2,0.6c-0.1,0.2-0.1,0.4-0.2,0.6c-0.2,0.9-0.5,1.8-0.7,2.7c0,0.1,0,0.3-0.1,0.4
				c-0.1,0.3-0.1,0.7-0.2,1c-0.1,0.6-0.2,1.2-0.3,1.7c0,0.3,0,0.6-0.1,0.9c0,0.5-0.1,1-0.1,1.4c0,0.8,0,1.5,0,2.2
				c0,0.4,0,0.9,0.1,1.3c0.1,0.7,0.2,1.4,0.3,2.1c0.1,0.3,0.1,0.7,0.2,1c0.3,0.9,0.6,1.8,1,2.6c0.2,0.4,3.7,7.2,3.8,16.5
				c0,1.5-0.1,3-0.2,4.6c0,0.5-0.1,1-0.1,1.4c-0.1,1-0.2,2-0.4,3c-0.2,1.1-0.4,2.2-0.6,3.3c-0.2,0.8-0.3,1.6-0.5,2.4
				c-0.2,0.7-0.4,1.5-0.5,2.2c-0.3,1-0.5,2-0.8,3c-0.2,0.6-0.4,1.2-0.6,1.8c-0.4,1.1-0.7,2.3-1.1,3.4c-0.2,0.5-0.3,1-0.5,1.5
				c-0.6,1.6-1.2,3.2-1.9,4.7c-0.1,0.1-0.1,0.3-0.2,0.4c-0.6,1.4-1.3,2.9-2,4.3c-0.2,0.4-0.5,0.9-0.7,1.3c-0.6,1.2-1.3,2.4-1.9,3.6
				c-0.2,0.4-0.4,0.7-0.6,1.1c-0.9,1.5-1.8,3-2.7,4.5c-0.2,0.3-0.4,0.7-0.7,1c-0.7,1.1-1.5,2.3-2.3,3.4c-0.4,0.5-0.8,1.1-1.2,1.6
				c-0.6,0.9-1.3,1.7-2,2.6c-0.6,0.7-1.1,1.4-1.7,2c-0.6,0.7-1.2,1.3-1.7,2c-0.9,1-1.8,2-2.8,3c-0.6,0.6-1.1,1.2-1.7,1.7
				c-0.4,0.4-0.9,0.8-1.3,1.3c-0.8,0.8-1.6,1.5-2.5,2.2c-0.5,0.4-0.9,0.8-1.4,1.2c-0.9,0.7-1.8,1.4-2.7,2c-0.4,0.3-0.8,0.6-1.3,0.9
				c-1.3,0.9-2.7,1.8-4,2.6c-0.7,0.4-1.5,1-2.2,1.6c-0.2,0.2-0.4,0.3-0.6,0.5c-0.2,0.2-0.4,0.3-0.6,0.5c-0.4,0.4-0.8,0.8-1.2,1.3
				c0,0.1-0.1,0.1-0.1,0.2c0,0.1-0.1,0.1-0.1,0.2c-0.2,0.3-0.4,0.5-0.6,0.8c-0.3,0.4-0.6,0.7-0.8,1.1c-0.2,0.2-0.3,0.4-0.4,0.7
				c0,0.1-0.1,0.1-0.1,0.2c-0.1,0.1-0.1,0.2-0.2,0.3c-0.3,0.4-0.5,0.8-0.8,1.3c-0.3,0.4-0.5,0.9-0.8,1.4c0,0,0,0.1-0.1,0.1
				c0,0.1-0.1,0.1-0.1,0.2c-0.2,0.4-0.4,0.8-0.6,1.2c-0.3,0.6-0.5,1.2-0.8,1.8c0,0.1-0.1,0.2-0.1,0.3c-0.1,0.1-0.1,0.3-0.2,0.4
				c-0.2,0.4-0.4,0.8-0.5,1.3c-0.3,0.7-0.5,1.5-0.8,2.2c0,0.1,0,0.1-0.1,0.2c0,0,0,0,0,0.1c-0.3,1-0.6,2-0.9,3
				c-0.1,0.2-0.1,0.4-0.1,0.5c-0.1,0.5-0.3,1.1-0.4,1.6c-0.1,0.5-0.3,1.1-0.4,1.6c-0.1,0.5-0.2,1-0.3,1.4c0,0.1,0,0.3-0.1,0.7
				c0,0.1,0,0.2,0,0.3c0,0.2-0.1,0.5-0.1,0.8c0,0.3-0.1,0.6-0.1,0.9c-0.1,0.4-0.1,0.8-0.2,1.2c-0.1,0.4-0.1,0.8-0.2,1.3
				c0,0.3-0.1,0.5-0.1,0.8c-0.1,0.7-0.2,1.4-0.3,2.1c0,0.1,0,0.2,0,0.4c0,0,0,0,0,0c-0.1,0.9-0.2,1.9-0.4,2.9c0,0.3-0.1,0.7-0.1,1
				c-0.1,0.7-0.2,1.5-0.3,2.2c0,0.4-0.1,0.8-0.1,1.2c-0.1,0.8-0.2,1.6-0.3,2.4c0,0.4-0.1,0.7-0.1,1.1c-0.1,1.1-0.2,2.2-0.3,3.3
				c0,0.1,0,0.2,0,0.4c-0.1,1.2-0.2,2.4-0.3,3.6c0,0.4-0.1,0.7-0.1,1.1c-0.1,0.9-0.1,1.7-0.2,2.6c0,0.4,0,0.8-0.1,1.3
				c0,0.8-0.1,1.7-0.1,2.5c0,0.4,0,0.7,0,1.1c0,1.2-0.1,2.3,0,3.4c0,16.1,3.8,34.4,3.8,35.2c0.4,2.5,1.1,4.6,2.1,6.3
				c1,1.7,2.2,3,3.6,3.8l33.8,19.7c-2.8-1.6-4.9-5.1-5.7-10.1c0-0.8-3.7-19.1-3.8-35.2c0-1.1,0-2.2,0-3.4c0-0.4,0-0.7,0-1.1
				c0-0.8,0.1-1.7,0.1-2.5c0-0.4,0-0.8,0.1-1.2c0.1-0.9,0.1-1.7,0.2-2.6c0-0.4,0-0.7,0.1-1.1c0.1-1.2,0.2-2.4,0.3-3.6
				c0-0.1,0-0.1,0-0.2c0.1-1.2,0.2-2.3,0.3-3.5c0-0.4,0.1-0.8,0.1-1.1c0.1-0.8,0.2-1.6,0.3-2.4c0-0.4,0.1-0.8,0.1-1.2
				c0.1-0.8,0.2-1.6,0.3-2.3c0-0.3,0.1-0.6,0.1-0.9c0.1-1,0.3-2,0.4-2.9c0-0.1,0-0.2,0-0.4c0.1-0.7,0.2-1.5,0.3-2.1
				c0-0.2,0.1-0.4,0.1-0.6c0.1-0.6,0.2-1.1,0.2-1.6c0-0.2,0-0.3,0.1-0.4c0.1-0.6,0.2-1.1,0.2-1.6c0-0.3,0.1-0.5,0.1-0.7
				c0-0.1,0-0.2,0-0.3c0,0,0,0,0-0.1c0-0.3,0.1-0.6,0.1-0.7c0.2-1,0.4-2.1,0.7-3.1c0.1-0.5,0.3-1.1,0.4-1.6c0.3-1.2,0.7-2.4,1.1-3.6
				c0-0.1,0-0.1,0.1-0.2c0.4-1.2,0.8-2.3,1.3-3.4c0.1-0.1,0.1-0.3,0.2-0.4c0.5-1.2,1-2.3,1.6-3.3c0-0.1,0.1-0.1,0.1-0.2
				c0.6-1.1,1.2-2.1,1.8-3.1c0-0.1,0.1-0.1,0.1-0.2c0.6-0.9,1.3-1.8,1.9-2.6c0-0.1,0.1-0.1,0.1-0.2c0.6-0.7,1.3-1.4,1.9-2
				c0.2-0.2,0.4-0.3,0.6-0.5c0.7-0.6,1.4-1.1,2.2-1.6c1.4-0.8,2.7-1.7,4-2.6c0.4-0.3,0.8-0.6,1.3-0.9c0.9-0.7,1.8-1.3,2.7-2
				c0.5-0.4,0.9-0.8,1.4-1.2c0.8-0.7,1.7-1.4,2.5-2.2c0.5-0.4,0.9-0.8,1.3-1.3c0.2-0.2,0.5-0.4,0.7-0.7c0.3-0.3,0.7-0.7,1-1.1
				c0.9-1,1.9-2,2.8-3c0.3-0.3,0.5-0.6,0.8-0.9c0.3-0.4,0.6-0.8,0.9-1.1c0.6-0.7,1.1-1.4,1.7-2.1c0.3-0.4,0.6-0.7,0.9-1.1
				c0.4-0.5,0.7-1,1.1-1.5c0.4-0.5,0.8-1.1,1.2-1.6c0.2-0.3,0.4-0.5,0.6-0.8c0.6-0.8,1.1-1.7,1.7-2.5c0.2-0.3,0.5-0.7,0.7-1
				c0.1-0.1,0.1-0.2,0.2-0.3c0.8-1.2,1.5-2.5,2.3-3.7c0.1-0.2,0.2-0.3,0.3-0.5c0.2-0.4,0.4-0.7,0.6-1.1c0.4-0.7,0.8-1.4,1.2-2.2
				c0.2-0.5,0.5-0.9,0.7-1.4c0.2-0.4,0.5-0.9,0.7-1.4c0.2-0.3,0.3-0.7,0.5-1c0.5-1.1,1-2.2,1.5-3.3c0.1-0.2,0.1-0.3,0.2-0.4
				c0,0,0-0.1,0.1-0.1c0.6-1.3,1.1-2.6,1.6-3.9c0.1-0.2,0.2-0.5,0.2-0.7c0.2-0.5,0.3-1,0.5-1.5c0.2-0.7,0.5-1.3,0.7-2
				c0.2-0.5,0.3-0.9,0.4-1.4c0.2-0.6,0.4-1.2,0.6-1.8c0.1-0.4,0.3-0.8,0.4-1.2c0.2-0.6,0.3-1.2,0.4-1.8c0.2-0.7,0.4-1.5,0.5-2.2
				c0.1-0.3,0.2-0.6,0.2-0.9c0.1-0.5,0.2-1,0.3-1.5c0.2-1.1,0.4-2.2,0.6-3.3c0-0.3,0.1-0.7,0.2-1c0.1-0.7,0.1-1.3,0.2-2
				c0-0.5,0.1-1,0.1-1.4c0.1-1.5,0.2-3.1,0.2-4.6c0-9.3-3.6-16.2-3.8-16.5c-0.4-0.7-0.8-1.6-1-2.6c-0.1-0.3-0.1-0.7-0.2-1
				c-0.1-0.7-0.3-1.4-0.3-2.1c0-0.4,0-0.9-0.1-1.3c0-0.7,0-1.5,0-2.2c0-0.5,0.1-0.9,0.1-1.4c0.1-0.9,0.2-1.8,0.4-2.7
				c0.1-0.3,0.1-0.7,0.2-1c0.2-1.2,0.6-2.5,0.9-3.7c0.1-0.2,0.1-0.4,0.2-0.6c0.4-1.3,0.8-2.5,1.3-3.8c0.1-0.1,0.1-0.3,0.2-0.4
				c0.5-1.3,1.1-2.6,1.8-3.9c0,0,0-0.1,0.1-0.1c0.7-1.3,1.5-2.6,2.3-3.8l42.7-51c2.2-2.1,5.2-4.7,8.1-6.4c1-0.6,1.9-1,2.9-1.4
				c0.2-0.1,0.4-0.2,0.5-0.2c0.7-0.3,1.5-0.6,2.2-0.8c0.5-0.1,1-0.2,1.4-0.3c0.1,0,0.2-0.1,0.4-0.1c0.5-0.1,1.1-0.1,1.6-0.1
				c0.1,0,0.2,0,0.4,0c0.4,0,0.8,0,1.2,0.1c0.1,0,0.2,0,0.3,0c0.2,0,0.4,0.1,0.6,0.1l5.9,3.4c0.1,0.1,0.2,0.1,0.3,0.2
				c0.2,0.1,0.4,0.2,0.6,0.3c0.8,0.4,1.6,0.8,2.5,1.2c0.2,0.1,0.3,0.2,0.5,0.3c0.2,0.1,0.5,0.2,0.8,0.3c0.8,0.3,1.7,0.6,2.7,0.9
				c0.3,0.1,0.6,0.2,0.9,0.3c0.2,0.1,0.4,0.1,0.7,0.2c0.7,0.2,1.5,0.4,2.2,0.5c0.5,0.1,0.9,0.2,1.3,0.3c0.2,0,0.5,0,0.7,0.1
				c0.5,0.1,1.1,0.1,1.6,0.2c0.5,0.1,1,0.1,1.5,0.2c0.4,0,0.7,0,1.1,0c0.4,0,0.9,0,1.3,0c0.3,0,0.6,0,1,0c0.9,0,1.8-0.1,2.7-0.3
				c0.1,0,0.2,0,0.3,0c0,0,0.1,0,0.1,0c1-0.1,1.9-0.3,2.9-0.6c0.3-0.1,0.6-0.2,0.9-0.3c0.3-0.1,0.7-0.2,1-0.3
				c0.4-0.1,0.7-0.2,1.1-0.4c0.9-0.4,1.9-0.8,2.8-1.4c0.7-0.4,1.5-0.9,2.2-1.5c0.2-0.2,0.5-0.4,0.7-0.6c0.5-0.4,1-0.8,1.5-1.2
				c0.3-0.2,0.6-0.5,0.9-0.8c0.5-0.4,1-0.8,1.4-1.3c0.3-0.3,0.6-0.6,0.9-0.9c0.2-0.2,0.4-0.4,0.6-0.6c0.1-0.1,0.2-0.3,0.4-0.4
				c1.4-1.4,2.8-2.9,4.1-4.4c0.1-0.1,0.2-0.2,0.2-0.2c0.1-0.1,0.2-0.3,0.3-0.4c1.5-1.7,2.9-3.4,4.3-5.2c0.1-0.1,0.1-0.2,0.2-0.3
				c0.1-0.1,0.2-0.3,0.3-0.4c1.7-2.2,3.3-4.4,4.8-6.5c0.1-0.1,0.1-0.2,0.2-0.3c0.1-0.1,0.1-0.2,0.2-0.3c0.9-1.3,1.7-2.5,2.5-3.7
				c0.2-0.2,0.3-0.5,0.5-0.7c0.7-1,1.3-2,1.9-2.9c0.1-0.2,0.2-0.3,0.3-0.5c0.1-0.1,0.2-0.3,0.2-0.4c0.7-1.1,1.4-2.2,2-3.2
				c0.1-0.1,0.1-0.2,0.2-0.3c0.5-0.9,1-1.7,1.5-2.5c0.1-0.1,0.2-0.2,0.2-0.4c0.1-0.3,0.3-0.5,0.4-0.7c0.9-1.8,1.9-3.4,3-5
				c0,0,0.1-0.1,0.1-0.1c1-1.5,2.1-2.8,3.3-4.1c0.2-0.2,0.3-0.4,0.5-0.5c0.9-0.9,1.8-1.8,2.8-2.6c0.4-0.3,0.8-0.7,1.2-1
				c1.3-1,2.6-1.9,4-2.7c0.6-0.3,1.3-0.7,1.9-0.9c0.1-0.1,0.2-0.1,0.4-0.1C622.4,326.7,623.4,326.4,624.3,326.1z"/>
		</g>
	</g>
	<g>
		<g class="st5">
			<linearGradient id="SVGID_30_" gradientUnits="userSpaceOnUse" x1="645.8196" y1="748.7614" x2="861.6711" y2="748.7614">
				<stop  offset="0" style="stop-color:#D7D8D5"/>
				<stop  offset="1" style="stop-color:#F6F6F9"/>
			</linearGradient>
			<path class="st32" d="M861.6,679.6c0,0.4-0.1,0.7-0.1,1.1c-0.1,0.3-0.1,0.6-0.2,0.9c-0.1,0.3-0.2,0.7-0.3,1
				c-0.1,0.3-0.2,0.6-0.4,0.8c-0.2,0.4-0.3,0.7-0.5,1.1c-0.1,0.3-0.3,0.5-0.5,0.7c-0.2,0.4-0.5,0.8-0.8,1.2
				c-0.2,0.2-0.4,0.5-0.5,0.7c-0.4,0.5-0.9,1-1.4,1.5c-0.2,0.2-0.4,0.4-0.6,0.6c-0.3,0.3-0.7,0.6-1,0.9c-0.3,0.3-0.6,0.5-0.9,0.7
				c-0.4,0.3-0.8,0.5-1.2,0.8c-0.4,0.3-0.8,0.6-1.3,0.8l-73.7,42.8c-1.5,0.9-3.1,1.6-4.7,2.2c-0.4,0.2-0.9,0.3-1.3,0.5
				c-1,0.4-2.1,0.7-3.2,1c-1.1,0.3-2.2,0.6-3.4,0.8c-1.4,0.3-2.7,0.5-4.1,0.7c-0.3,0-0.7,0.1-1,0.1c-1.9,0.2-3.8,0.3-5.7,0.3
				c-0.3,0-0.6,0-0.9,0c-1.9,0-3.8-0.1-5.6-0.3c-0.3,0-0.6-0.1-0.8-0.1c-1.8-0.2-3.7-0.5-5.4-0.9c-0.3-0.1-0.6-0.2-1-0.2
				c-1.6-0.4-3.2-0.9-4.7-1.4c-0.3-0.1-0.6-0.2-0.8-0.3c-1.8-0.7-3.6-1.5-5.2-2.4l-74.1-42.8c-6.7-3.9-10-8.9-10-14l-0.2,78.3
				c0,5.1,3.3,10.1,10,14l74.1,42.8c1.5,0.9,3.2,1.7,4.9,2.4c0.1,0,0.2,0.1,0.3,0.1c0.3,0.1,0.6,0.2,0.8,0.3c1,0.4,2,0.7,3,1
				c0.5,0.2,1.1,0.3,1.7,0.4c0.3,0.1,0.6,0.2,1,0.2c0.3,0.1,0.6,0.2,0.9,0.2c1.1,0.2,2.2,0.4,3.4,0.6c0.4,0.1,0.8,0.1,1.2,0.1
				c0.3,0,0.6,0.1,0.8,0.1c0.4,0,0.8,0.1,1.2,0.1c1.1,0.1,2.2,0.2,3.3,0.2c0.3,0,0.7,0,1,0c0.3,0,0.6,0,0.9,0c0.5,0,1,0,1.5,0
				c1.3,0,2.5-0.1,3.8-0.3c0.1,0,0.3,0,0.4-0.1c0.3,0,0.7-0.1,1-0.1c1-0.1,1.9-0.2,2.9-0.4c0.4-0.1,0.8-0.2,1.2-0.3
				c1.2-0.2,2.3-0.5,3.4-0.8c0.6-0.2,1.2-0.3,1.8-0.4c0.5-0.2,0.9-0.4,1.4-0.5c0.4-0.2,0.9-0.3,1.3-0.5c1.7-0.7,3.3-1.4,4.7-2.2
				l73.7-42.8c0.1-0.1,0.3-0.2,0.4-0.2c0.3-0.2,0.6-0.4,0.9-0.6c0.4-0.3,0.8-0.5,1.2-0.8c0.3-0.2,0.6-0.5,1-0.8
				c0.4-0.3,0.7-0.6,1-0.9c0.1-0.1,0.1-0.1,0.2-0.2c0.1-0.1,0.2-0.3,0.4-0.4c0.5-0.5,1-1,1.4-1.5c0.1-0.1,0.2-0.2,0.3-0.3
				c0.1-0.1,0.1-0.2,0.2-0.3c0.3-0.4,0.6-0.8,0.8-1.2c0.1-0.2,0.2-0.3,0.3-0.5c0-0.1,0.1-0.2,0.1-0.3c0.2-0.3,0.3-0.7,0.5-1.1
				c0.1-0.2,0.2-0.4,0.3-0.6c0-0.1,0-0.1,0.1-0.2c0.1-0.3,0.2-0.7,0.3-1c0.1-0.2,0.2-0.5,0.2-0.7c0-0.1,0-0.1,0-0.2
				c0.1-0.4,0.1-0.7,0.1-1.1c0-0.2,0.1-0.5,0.1-0.7c0-0.1,0-0.2,0-0.3l0.2-78.3C861.7,678.9,861.6,679.2,861.6,679.6z"/>
			<g>
				<path class="st11" d="M851.6,664.6c13.3,7.7,13.4,20.1,0.2,27.8l-73.7,42.8c-13.2,7.7-34.7,7.7-48,0l-74.1-42.8
					c-13.3-7.7-13.4-20.1-0.2-27.8l73.7-42.8c13.2-7.7,34.7-7.7,48,0L851.6,664.6z"/>
				<g class="st5">
					<defs>
						<path id="SVGID_31_" class="st5" d="M851.6,664.6c13.3,7.7,13.4,20.1,0.2,27.8l-73.7,42.8c-13.2,7.7-34.7,7.7-48,0l-74.1-42.8
							c-13.3-7.7-13.4-20.1-0.2-27.8l73.7-42.8c13.2-7.7,34.7-7.7,48,0L851.6,664.6z"/>
					</defs>
					<use xlink:href="#SVGID_31_"  style="overflow:visible;fill:#FDFDFD;"/>
					<clipPath id="SVGID_32_">
						<use xlink:href="#SVGID_31_"  style="overflow:visible;"/>
					</clipPath>
				</g>
			</g>
		</g>
	</g>
</g>
</svg>
