<?xml version="1.0" encoding="UTF-8"?>
<svg width="371px" height="200px" viewBox="0 0 371 200" version="1.1" xmlns="http://www.w3.org/2000/svg" xmlns:xlink="http://www.w3.org/1999/xlink">
    <title>没有数据_1@1x</title>
    <defs>
        <linearGradient x1="-47.0190124%" y1="-185.963888%" x2="68.8688465%" y2="100%" id="linearGradient-1">
            <stop stop-color="#D2D2D2" offset="0%"></stop>
            <stop stop-color="#D2D2D2" stop-opacity="0" offset="100%"></stop>
        </linearGradient>
        <linearGradient x1="118.999979%" y1="-110.864112%" x2="54.5018665%" y2="55.5871768%" id="linearGradient-2">
            <stop stop-color="#D2D2D2" offset="0%"></stop>
            <stop stop-color="#D2D2D2" stop-opacity="0" offset="100%"></stop>
        </linearGradient>
        <linearGradient x1="50%" y1="-221.156912%" x2="50%" y2="100%" id="linearGradient-3">
            <stop stop-color="#D2D2D2" offset="0%"></stop>
            <stop stop-color="#D2D2D2" stop-opacity="0" offset="100%"></stop>
        </linearGradient>
        <linearGradient x1="100.080959%" y1="-97.780461%" x2="38.826306%" y2="104.736078%" id="linearGradient-4">
            <stop stop-color="#D2D2D2" offset="0%"></stop>
            <stop stop-color="#D2D2D2" stop-opacity="0" offset="100%"></stop>
        </linearGradient>
        <linearGradient x1="50%" y1="-230.116303%" x2="50%" y2="100%" id="linearGradient-5">
            <stop stop-color="#D2D2D2" offset="0%"></stop>
            <stop stop-color="#D2D2D2" stop-opacity="0" offset="100%"></stop>
        </linearGradient>
        <linearGradient x1="50%" y1="-169.203289%" x2="50%" y2="100%" id="linearGradient-6">
            <stop stop-color="#D2D2D2" offset="0%"></stop>
            <stop stop-color="#D2D2D2" stop-opacity="0" offset="100%"></stop>
        </linearGradient>
        <linearGradient x1="34.84688%" y1="45.0173158%" x2="64.4267641%" y2="55.3765423%" id="linearGradient-7">
            <stop stop-color="" stop-opacity="0" offset="0%"></stop>
            <stop stop-color="#A0A0A0" offset="100%"></stop>
        </linearGradient>
        <linearGradient x1="8.80966995%" y1="-23.5428137%" x2="86.6936645%" y2="115.511676%" id="linearGradient-8">
            <stop stop-color="#F8F8F8" offset="0%"></stop>
            <stop stop-color="#D2D2D2" offset="100%"></stop>
        </linearGradient>
        <linearGradient x1="2.68129334e-13%" y1="50%" x2="100%" y2="50%" id="linearGradient-9">
            <stop stop-color="#FFFFFF" offset="0%"></stop>
            <stop stop-color="#FFFFFF" offset="100%"></stop>
        </linearGradient>
        <linearGradient x1="-8.36120401%" y1="50%" x2="108.361204%" y2="50%" id="linearGradient-10">
            <stop stop-color="#44a5ff" offset="0%"></stop>
            <stop stop-color="#7dbefc" offset="100%"></stop>
        </linearGradient>
        <linearGradient x1="0%" y1="50%" x2="99.9736008%" y2="50%" id="linearGradient-11">
            <stop stop-color="#DFF6F4" offset="0%"></stop>
            <stop stop-color="#44a5ff" offset="100%"></stop>
        </linearGradient>
        <linearGradient x1="51.1820056%" y1="-40.9238143%" x2="49.7009619%" y2="68.8395215%" id="linearGradient-12">
            <stop stop-color="#7dbefc" offset="0%"></stop>
            <stop stop-color="#44a5ff" offset="100%"></stop>
        </linearGradient>
        <linearGradient x1="48.8989381%" y1="-135.552597%" x2="50.0734041%" y2="58.322237%" id="linearGradient-13">
            <stop stop-color="#44a5ff" offset="0%"></stop>
            <stop stop-color="#7dbefc" offset="100%"></stop>
        </linearGradient>
    </defs>
    <g id="页面-1" stroke="none" stroke-width="1" fill="none" fill-rule="evenodd">
        <g id="空状态图标备份" transform="translate(-954.000000, -197.000000)">
            <g id="没有数据_1" transform="translate(954.000000, 197.000000)">
                <path d="M73.2592593,159.555556 C65.345679,155.975309 56.7654321,146.37037 59.1975309,137.333333 C60.4139859,137.021989 61.693852,137.518061 62.382716,138.567901 C62.382716,138.567901 76.1111111,160.012346 72.2592593,140.283951 C70.4444444,131.012346 67.3209877,122.049383 67.0740741,112.469136 C66.6666667,95.0617284 82.6419753,90.2345679 87.2345679,109.469136 C87.8395062,112.012346 90.1604938,132.691358 95.4444444,130.320988 C96.1250336,129.96303 96.6773282,129.402106 97.0246914,128.716049 C99.7037037,124.320988 100.506173,117.864198 105.419753,116.37037 C109.728395,115.012346 113.975309,118.753086 116.296296,122.617284 C121,130.469136 127.296296,149.987654 117.666667,156.604938 C108.037037,163.222222 83.7407407,164.271605 73.345679,159.641975 L73.2592593,159.555556 Z" id="路径" fill="url(#linearGradient-1)" fill-rule="nonzero"></path>
                <path d="M273.185185,180.432099 C269.703704,172.469136 269.790123,159.592593 277.691358,154.506173 C278.808047,155.106384 279.411159,156.357467 279.185185,157.604938 C279.185185,157.604938 274.975309,182.728395 285.358025,165.506173 C290.296296,157.395062 294,148.666667 300.17284,141.395062 C311.518519,128.135802 326.641975,135.333333 317.148148,152.679012 C315.91358,154.975309 303.740741,171.864198 309.246914,173.666667 C309.992355,173.849989 310.775891,173.802632 311.493827,173.530864 C316.432099,172.074074 321.37037,167.82716 326.037037,169.975309 C330.135802,171.864198 330.777778,177.469136 329.91358,181.901235 C328.135802,190.876543 319.421721,200.913594 307.841474,199.358038 C296.014314,197.7531 277.777778,190.925926 273.222222,180.518519 L273.185185,180.432099 Z" id="路径" fill="url(#linearGradient-2)" fill-rule="nonzero"></path>
                <path d="M370.518519,199.358025 C323.962963,167.419753 258.17284,147.506173 185.259259,147.506173 C112.345679,147.506173 46.5555556,167.419753 0,199.358025 L370.518519,199.358025 Z" id="路径" fill="url(#linearGradient-3)" fill-rule="nonzero"></path>
                <path d="M293.469136,103.061728 C290.518519,106.765432 288.62963,112.012346 290.395062,116.703704 C291.617284,119.938272 295.296296,119.962963 295.037037,124.45679 C294.783185,126.700642 294.014206,128.855474 292.790123,130.753086 C290.704251,134.401498 288.14732,137.759545 285.185185,140.740741 C287.654305,142.666736 288.910389,145.762255 288.481481,148.864198 C287.997231,151.943089 286.539107,154.785783 284.320988,156.975309 C283.667879,157.773958 282.816415,158.387013 281.851852,158.753086 C280.917648,158.968863 279.94655,158.968863 279.012346,158.753086 C274.419062,157.973515 269.959209,156.547858 265.765432,154.518519 C263.148148,153.271605 260.481481,151.567901 259.592593,148.851852 C258.574074,145.734568 260.19348,144.74402 261.961179,143.767337 L262.41743,143.515165 C263.3302,143.00611 264.22575,142.452822 264.765432,141.567901 C266.061728,139.444444 266.098765,136.604938 266.555556,134.234568 C267.222222,130.740741 266.234568,124.37037 270.604938,123 C272.296296,122.469136 274.135802,122.592593 275.82716,122.049383 C279.501372,120.879973 281.022443,117.423716 282.495104,113.929038 L282.762795,113.293719 C283.611763,111.283705 284.486968,109.306127 285.790123,107.790123 C287.641975,105.62963 292.234568,104.567901 293.469136,103.061728 Z M282.802469,123.790123 C282.802469,123.790123 269.506173,139.296296 269.938272,153.62963 L274.234568,153.62963 C274.234568,153.62963 275.790123,136.345679 282.802469,123.790123 Z" id="形状结合" fill="url(#linearGradient-4)" fill-rule="nonzero"></path>
                <path d="M104.135802,22.0123457 L104.135802,22.0123457 C104.204481,17.2266814 100.786222,13.1001602 96.0713857,12.2769836 C91.3565496,11.453807 86.7422233,14.1778964 85.1851852,18.7037037 C82.2145965,18.6454738 79.4492011,20.2136497 77.9742152,22.7928364 C76.4992294,25.3720232 76.5499916,28.5507039 78.1065814,31.0814777 C79.6631712,33.6122514 82.4772299,35.0913258 85.4444444,34.9382716 L103.333333,34.9382716 C106.729866,34.8929659 109.517593,32.237706 109.72807,28.8473981 C109.938548,25.4570902 107.50065,22.4774124 104.135802,22.0123457 L104.135802,22.0123457 Z" id="路径" fill="url(#linearGradient-5)" fill-rule="nonzero"></path>
                <path d="M178.074074,12.2098765 L178.074074,12.1481481 C178.066799,6.2330224 173.804253,1.18112824 167.974706,0.178555914 C162.14516,-0.824016407 156.439779,2.51358193 154.45679,8.08641975 C148.848713,8.17505805 144.374325,12.7931579 144.462963,18.4012346 C144.551601,24.0093112 149.169701,28.4837 154.777778,28.3950617 L177,28.3950617 C181.281476,28.4026917 184.829217,25.0765028 185.097306,20.8034213 C185.365395,16.5303398 182.261202,12.7868147 178.012346,12.2592593 L178.074074,12.2098765 Z" id="路径" fill="url(#linearGradient-6)" fill-rule="nonzero"></path>
                <polygon id="矩形" fill="url(#linearGradient-7)" fill-rule="nonzero" points="102 139 154.33902 139 207.001854 173.432099 155.484945 172.405334"></polygon>
                <g id="编组-4" transform="translate(145.469136, 27.057306)" fill-rule="nonzero">
                    <rect id="矩形" fill="url(#linearGradient-8)" x="0" y="16.6587438" width="99.6790123" height="130.049383" rx="16.26"></rect>
                    <rect id="矩形" fill="#FFFFFF" opacity="0.6" x="5.96296296" y="24.0661513" width="87.7407407" height="115.234568" rx="10.83"></rect>
                    <path d="M71.4074074,16.4488673 L59.8395062,16.4488673 C61.9832634,12.3025914 61.3496498,7.26394573 58.2460751,3.77752585 C55.1425005,0.291105971 50.2111233,-0.921715321 45.8444958,0.727485455 C41.4778683,2.37668623 38.5794863,6.54667403 38.5555556,11.2142994 C38.5382675,13.0214293 38.9620377,14.8055018 39.7901235,16.4118303 L28.2098765,16.4118303 C26.9396727,16.4186229 25.9135802,17.4502503 25.9135802,18.7204722 L25.9135802,26.2760278 C25.9135802,27.5442372 26.9416671,28.5723241 28.2098765,28.5723241 L71.3580247,28.5723241 C72.6282467,28.5723241 73.659874,27.5462316 73.6666667,26.2760278 L73.6666667,18.7575093 C73.6666667,17.5015203 72.663109,16.4757333 71.4074074,16.4488673 Z" id="路径" fill="#CCCCCC" opacity="0.44"></path>
                    <path d="M31.5925926,60.7575093 L18.4320988,60.7575093 C17.0684327,60.7575093 15.962963,59.6520395 15.962963,58.2883735 C15.962963,56.9247074 17.0684327,55.8192377 18.4320988,55.8192377 L31.617284,55.8192377 C32.98095,55.8192377 34.0864198,56.9247074 34.0864198,58.2883735 C34.0864198,59.6520395 32.98095,60.7575093 31.617284,60.7575093 L31.5925926,60.7575093 Z" id="路径" fill="#D0D0D0"></path>
                    <path d="M52.4567901,74.0414599 L17.5555556,74.0414599 C16.1918895,74.0414599 15.0864198,72.9359901 15.0864198,71.5723241 C15.0864198,70.208658 16.1918895,69.1031883 17.5555556,69.1031883 L52.4567901,69.1031883 C53.8204562,69.1031883 54.9259259,70.208658 54.9259259,71.5723241 C54.9259259,72.9359901 53.8204562,74.0414599 52.4567901,74.0414599 L52.4567901,74.0414599 Z" id="路径" fill="#FFFFFF"></path>
                    <path d="M52.4567901,87.7575093 L17.5555556,87.7575093 C16.1918895,87.7575093 15.0864198,86.6520395 15.0864198,85.2883735 C15.0864198,83.9247074 16.1918895,82.8192377 17.5555556,82.8192377 L52.4567901,82.8192377 C53.8204562,82.8192377 54.9259259,83.9247074 54.9259259,85.2883735 C54.9259259,86.6520395 53.8204562,87.7575093 52.4567901,87.7575093 L52.4567901,87.7575093 Z" id="路径" fill="#FFFFFF"></path>
                    <circle id="椭圆形" fill="url(#linearGradient-9)" cx="49.8395062" cy="11.0291142" r="6.54320988"></circle>
                </g>
                <g id="编组-3" transform="translate(192.950617, 111.382716)">
                    <ellipse id="椭圆形" stroke="url(#linearGradient-10)" stroke-width="7" cx="25.8395062" cy="26.308642" rx="25.8395062" ry="26.308642"></ellipse>
                    <circle id="椭圆形" fill="url(#linearGradient-11)" fill-rule="nonzero" opacity="0.400320871" cx="25.8395062" cy="26.308642" r="23.382716"></circle>
                    <path d="M12.3184494,29.4197531 L12.3184494,29.4197531 C9.7234446,29.4197531 7.61652311,27.320245 7.60493827,24.7227689 C7.60493827,23.9434486 7.7206718,16.9822232 12.6866925,12.0114237 C15.7273281,8.97839358 19.9358202,7.43028444 24.9018409,7.41975309 C27.5166626,7.43720201 29.622263,9.5731188 29.6049383,12.1904568 C29.5873987,14.8077947 27.4535353,16.9154212 24.8387135,16.8979723 C20.5250091,16.8979723 19.0204731,18.8252102 18.2313809,20.2995999 C17.5387183,21.6759576 17.1443306,23.1832507 17.0740455,24.7227689 C17.0395059,27.3270299 14.9204361,29.4199826 12.3184494,29.4197531 Z" id="路径" fill="#FFFFFF" fill-rule="nonzero"></path>
                    <polygon id="矩形" fill="url(#linearGradient-12)" fill-rule="nonzero" transform="translate(58.814345, 60.387376) rotate(-46.860000) translate(-58.814345, -60.387376) " points="52.7279251 47.8935493 64.9007646 47.8935493 64.9007646 72.8812037 52.7279251 72.8812037"></polygon>
                    <polygon id="矩形" fill="url(#linearGradient-13)" fill-rule="nonzero" transform="translate(47.971660, 50.221548) rotate(-46.860000) translate(-47.971660, -50.221548) " points="45.4161046 45.5857457 50.5272158 45.5857457 50.5272158 54.8573507 45.4161046 54.8573507"></polygon>
                </g>
            </g>
        </g>
    </g>
</svg>