<?xml version="1.0" encoding="utf-8"?>
<!-- Generator: Adobe Illustrator 21.0.0, SVG Export Plug-In . SVG Version: 6.00 Build 0)  -->
<svg version="1.1" id="图层_1" xmlns="http://www.w3.org/2000/svg" xmlns:xlink="http://www.w3.org/1999/xlink" x="0px" y="0px"
	 viewBox="0 0 1024 1024" style="enable-background:new 0 0 1024 1024;" xml:space="preserve">
<style type="text/css">
	.st0{display:none;}
	.st1{display:inline;}
	.st2{opacity:0.25;}
	.st3{display:inline;opacity:0.25;}
	.st4{fill:#E5AD65;}
	.st5{enable-background:new    ;}
	.st6{fill:url(#SVGID_1_);}
	.st7{fill:url(#SVGID_2_);}
	.st8{fill:url(#SVGID_3_);}
	.st9{fill:url(#SVGID_4_);}
	.st10{fill:url(#SVGID_5_);}
	.st11{fill:url(#SVGID_6_);}
	.st12{fill:url(#SVGID_7_);}
	.st13{fill:#FBFBFB;}
	.st14{fill:url(#SVGID_8_);}
	.st15{fill:url(#SVGID_9_);}
	.st16{fill:url(#SVGID_10_);}
	.st17{fill:url(#SVGID_11_);}
	.st18{fill:url(#SVGID_12_);}
	.st19{fill:url(#SVGID_13_);}
	.st20{fill:url(#SVGID_14_);}
	.st21{fill:#FFFFFF;}
</style>
<g id="图层_1_1_" class="st0">
	<g id="bg" class="st1">
		<g id="图层_2">
			<g id="图标参考线">
				<g id="图标尺寸" class="st2">
					<path d="M1018.2,5.8v1012.5H5.8V5.8H1018.2 M1024,0H0v1024h1024V0z"/>
					<path d="M512,28.8c266.9,0,483.2,216.4,483.2,483.2S778.9,995.2,512,995.2S28.8,778.9,28.8,512S245.1,28.8,512,28.8 M512,23
						C241.9,23,23,241.9,23,512s218.9,489,489,489s489-218.9,489-489C1000.7,242,782,23.3,512,23z"/>
					<path d="M949.2,74.8v874.4H74.8V74.8H949.2 M955,69H69v886h886V69z"/>
					<path d="M995.2,28.8v966.5H28.8V28.8H995.2 M1001,23H23v978h978V23z"/>
					<path d="M995.2,189.8v644.3H28.8V189.8H995.2 M1001,184.1H23v655.8h978V184.1z"/>
				</g>
			</g>
		</g>
	</g>
	<g id="图标尺寸_1_" class="st3">
		<g>
			<path d="M1017.1,4.6v1010.2H6.9V4.6H1017.1 M1021.7,0h-6.9H4.6H0v6.9v1010.2v6.9h6.9h1010.2h6.9v-6.9V6.9V0H1021.7z"/>
		</g>
		<g>
			<path d="M512,27.6c266.3,0,482.2,215.8,482.2,482.2S778.3,991.9,512,991.9S29.8,776.1,29.8,509.7S245.7,27.6,512,27.6 M512,23
				C243.4,23,23,241.1,23,509.7s218.1,486.7,489,486.7s489-218.1,489-486.7S780.6,23,512,23L512,23z"/>
		</g>
		<g>
			<path d="M948.2,73.5V946H75.8V73.5H948.2 M952.8,68.9h-6.9H73.5h-4.6v6.9v872.5v6.9h6.9h872.5h6.9v-6.9V75.8v-6.9H952.8z"/>
		</g>
		<g>
			<path d="M994.1,27.6v964.3H29.8V27.6H994.1 M998.7,23h-6.9H27.5h-4.6v6.9v964.3v6.9h6.9h964.3h6.9v-6.9V29.9V23H998.7z"/>
		</g>
		<g>
			<path d="M994.1,188.3v642.9H29.8V188.3H994.1 M998.7,183.7h-6.9H27.5h-4.6v4.6v642.9v6.9h6.9h964.3h6.9v-6.9V188.3v-4.6H998.7z"
				/>
		</g>
	</g>
</g>
<line class="st4" x1="875.8" y1="815.6" x2="880.9" y2="815.9"/>
<g>
	<g class="st5">
		<linearGradient id="SVGID_1_" gradientUnits="userSpaceOnUse" x1="274.2402" y1="907.7054" x2="660.2949" y2="907.7054">
			<stop  offset="0" style="stop-color:#D7D8D5"/>
			<stop  offset="1" style="stop-color:#EDEDEE"/>
		</linearGradient>
		<path class="st6" d="M660.3,818.2c0,0.8-0.1,1.5-0.4,2.3c0,0.1,0,0.2-0.1,0.2c-0.2,0.7-0.6,1.4-1.1,2.1c-0.1,0.1-0.2,0.2-0.2,0.4
			c-0.5,0.7-1.1,1.3-1.8,1.9c-0.4,0.4-1,0.8-1.5,1.1c-0.5,0.3-0.9,0.7-1.4,1L453,944c-1.3,0.8-2.8,1.4-4.4,1.9
			c-0.5,0.2-1.1,0.4-1.7,0.5c-0.7,0.2-1.5,0.4-2.2,0.6c-0.9,0.2-1.8,0.4-2.7,0.5c-0.2,0-0.4,0.1-0.7,0.1c-1.2,0.1-2.5,0.2-3.7,0.2
			c-0.2,0-0.4,0-0.6,0c-1.2,0-2.5-0.1-3.7-0.2c-0.2,0-0.4,0-0.6-0.1c-1.2-0.1-2.4-0.4-3.6-0.6c-0.2,0-0.4-0.1-0.6-0.2
			c-1.1-0.3-2.1-0.6-3.1-0.9c-0.2-0.1-0.4-0.1-0.6-0.2c-1.2-0.5-2.3-1-3.4-1.6l-140.6-81.2c-2.2-1.3-3.8-2.7-4.9-4.3
			s-1.6-3.2-1.6-4.9l-0.1,49.4c0,3.3,2.2,6.6,6.6,9.2l140.6,81.2c1,0.6,2.1,1.1,3.2,1.5c0.1,0,0.1,0,0.2,0.1
			c0.2,0.1,0.4,0.1,0.6,0.2c0.6,0.2,1.3,0.5,2,0.7c0.4,0.1,0.7,0.2,1.1,0.3c0.2,0.1,0.4,0.1,0.6,0.2c0.2,0,0.4,0.1,0.6,0.1
			c0.7,0.2,1.5,0.3,2.2,0.4c0.3,0,0.5,0.1,0.8,0.1c0.2,0,0.4,0,0.5,0.1c0.3,0,0.5,0.1,0.8,0.1c0.7,0.1,1.5,0.1,2.2,0.1
			c0.2,0,0.5,0,0.7,0c0.2,0,0.4,0,0.6,0c0.3,0,0.7,0,1,0c0.8,0,1.7-0.1,2.5-0.2c0.1,0,0.2,0,0.3,0c0.2,0,0.4-0.1,0.6-0.1
			c0.6-0.1,1.3-0.2,1.9-0.3c0.3,0,0.5-0.1,0.8-0.2c0.8-0.2,1.5-0.3,2.2-0.6c0.4-0.1,0.8-0.2,1.2-0.3c0.2-0.1,0.3-0.2,0.5-0.2
			c1.6-0.5,3-1.1,4.4-1.9l200.9-116.7c0.1-0.1,0.2-0.1,0.3-0.2c0.4-0.3,0.7-0.6,1.1-0.8c0.5-0.4,1.1-0.7,1.6-1.2
			c0,0,0.1-0.1,0.1-0.1c0.5-0.5,1-1,1.4-1.5c0.1-0.1,0.2-0.2,0.2-0.4c0.1-0.1,0.2-0.2,0.2-0.4c0.1-0.2,0.3-0.4,0.4-0.6
			c0.2-0.4,0.4-0.8,0.6-1.3c0-0.1,0-0.1,0.1-0.2c0-0.1,0-0.2,0.1-0.2c0.1-0.3,0.2-0.5,0.2-0.8c0.1-0.4,0.1-0.9,0.1-1.3
			c0-0.1,0-0.1,0-0.2l0,0L660.3,818.2z"/>
		<g>
			<linearGradient id="SVGID_2_" gradientUnits="userSpaceOnUse" x1="274.3804" y1="835.9286" x2="660.2948" y2="835.9286">
				<stop  offset="0" style="stop-color:#F1EDEC"/>
				<stop  offset="1" style="stop-color:#ECECEA"/>
			</linearGradient>
			<path class="st7" d="M653.7,809c8.7,5,8.8,13.2,0.1,18.2L453,944c-8.7,5-22.8,5-31.5,0l-140.6-81.2c-8.7-5-8.7-13.2-0.1-18.2
				l200.9-116.7c8.7-5,22.7-5,31.4,0L653.7,809z"/>
		</g>
	</g>
</g>
<g>
	<g class="st5">
		<linearGradient id="SVGID_3_" gradientUnits="userSpaceOnUse" x1="358.8425" y1="728.5707" x2="560.0639" y2="728.5707">
			<stop  offset="0" style="stop-color:#D7D8D5"/>
			<stop  offset="1" style="stop-color:#F6F6F9"/>
		</linearGradient>
		<path class="st8" d="M553.1,580.4c0.8-0.3,1.6-0.4,2.3-0.5c0.1,0,0.1,0,0.2,0c0.8-0.1,1.6,0,2.3,0.1c0,0,0.1,0,0.1,0
			c0.7,0.2,1.4,0.4,2,0.8l-42.7-24.8c0,0-0.1,0-0.1,0c-0.2-0.1-0.5-0.2-0.7-0.3c-0.2-0.1-0.5-0.2-0.8-0.3c-0.2,0-0.3-0.1-0.5-0.1
			c0,0-0.1,0-0.1,0c-0.1,0-0.1,0-0.2,0c-0.3,0-0.6-0.1-0.9-0.1c-0.3,0-0.6,0-0.9,0c-0.1,0-0.2,0-0.3,0c-0.1,0-0.1,0-0.2,0
			c-0.2,0-0.4,0-0.6,0.1c-0.4,0.1-0.8,0.2-1.2,0.3c-0.2,0-0.4,0.1-0.5,0.2c-0.2,0.1-0.3,0.1-0.5,0.2c-0.2,0.1-0.4,0.1-0.6,0.2
			c-0.6,0.3-1.3,0.6-2,1L373,634.4c-0.9,0.5-1.8,1.2-2.7,1.8c-0.3,0.2-0.5,0.5-0.8,0.7c-0.4,0.4-0.8,0.7-1.2,1.1
			c-0.2,0.2-0.4,0.4-0.6,0.6c-0.2,0.2-0.3,0.3-0.5,0.5c-0.2,0.2-0.4,0.4-0.5,0.6c-0.4,0.5-0.8,0.9-1.2,1.4c-0.1,0.2-0.3,0.4-0.4,0.5
			c-0.1,0.1-0.1,0.2-0.2,0.3c-0.1,0.2-0.2,0.3-0.4,0.5c-0.3,0.4-0.6,0.8-0.8,1.2c-0.3,0.4-0.5,0.8-0.7,1.2c0,0,0,0.1-0.1,0.1
			c0,0,0,0.1-0.1,0.1c-0.2,0.3-0.4,0.7-0.6,1c-0.2,0.4-0.4,0.8-0.6,1.2c-0.2,0.4-0.3,0.7-0.5,1.1c0,0,0,0,0,0.1c0,0,0,0.1,0,0.1
			c-0.2,0.4-0.4,0.9-0.5,1.3c-0.2,0.4-0.3,0.9-0.5,1.3c-0.1,0.2-0.1,0.4-0.2,0.6c0,0.1-0.1,0.2-0.1,0.3c-0.1,0.2-0.1,0.3-0.2,0.5
			c-0.2,0.5-0.3,1.1-0.4,1.6c-0.1,0.3-0.1,0.6-0.2,0.9c0,0.2-0.1,0.3-0.1,0.5c0,0.2-0.1,0.3-0.1,0.5c-0.1,0.9-0.2,1.8-0.2,2.7
			l0.6,209.4c0,4.4,1.6,7.6,4.1,9.1l42.7,24.8c-2.5-1.5-4.1-4.6-4.1-9.1l-0.6-209.4c0-1.1,0.1-2.1,0.3-3.2c0-0.2,0.1-0.3,0.1-0.5
			c0.2-1,0.4-2.1,0.7-3.1c0-0.1,0.1-0.2,0.1-0.3c0.3-1.1,0.8-2.2,1.2-3.3c0,0,0-0.1,0-0.1c0.5-1.1,1.1-2.2,1.7-3.3
			c0,0,0-0.1,0.1-0.1c0.6-1,1.3-2.1,2-3c0.1-0.1,0.1-0.2,0.2-0.3c0.7-0.9,1.3-1.7,2.1-2.5c0.2-0.2,0.3-0.3,0.5-0.5
			c0.6-0.6,1.2-1.1,1.8-1.7c0.3-0.2,0.5-0.5,0.8-0.7c0.9-0.7,1.7-1.3,2.6-1.8L550,581.7c0.9-0.5,1.8-0.9,2.6-1.2
			C552.8,580.5,552.9,580.4,553.1,580.4z"/>
		<g>
			<linearGradient id="SVGID_4_" gradientUnits="userSpaceOnUse" x1="483.1969" y1="903.1616" x2="483.1969" y2="579.7872">
				<stop  offset="0" style="stop-color:#FBFBFB"/>
				<stop  offset="1" style="stop-color:#FBFBFB"/>
			</linearGradient>
			<path class="st9" d="M550,581.7c7.8-4.5,14.2-0.8,14.2,8.1l0.6,209.4c0,9-6.3,20-14.1,24.5l-134.3,77.5
				c-7.8,4.5-14.2,0.8-14.2-8.1l-0.6-209.4c0-9,6.3-20,14.1-24.5L550,581.7z"/>
		</g>
	</g>
</g>
<g>
	<g class="st5">
		<linearGradient id="SVGID_5_" gradientUnits="userSpaceOnUse" x1="100.4721" y1="455.2898" x2="730.6459" y2="455.2898">
			<stop  offset="0" style="stop-color:#D7D8D5"/>
			<stop  offset="1" style="stop-color:#F6F6F9"/>
		</linearGradient>
		<path class="st10" d="M709,60.7c0.9-0.4,1.9-0.7,2.8-1c0.6-0.2,1.2-0.4,1.8-0.5c0.5-0.1,1.1-0.2,1.6-0.3c0.7-0.1,1.4-0.2,2.1-0.3
			c0.4,0,0.8-0.1,1.2-0.1c0.9-0.1,1.7-0.1,2.6,0c0.2,0,0.4,0,0.5,0c1,0.1,2,0.2,2.9,0.4c0.2,0,0.5,0.1,0.7,0.2
			c0.7,0.2,1.5,0.4,2.2,0.6c0.2,0.1,0.5,0.2,0.7,0.2c0.9,0.4,1.8,0.8,2.6,1.2l-42.7-24.8c-0.1,0-0.1-0.1-0.2-0.1
			c-0.6-0.4-1.3-0.7-2-1c-0.1-0.1-0.3-0.1-0.4-0.1c-0.2-0.1-0.4-0.2-0.7-0.2c-0.3-0.1-0.7-0.3-1-0.4c-0.4-0.1-0.7-0.2-1.1-0.3
			c-0.2-0.1-0.5-0.1-0.7-0.2c-0.1,0-0.3-0.1-0.4-0.1c-0.8-0.1-1.6-0.2-2.4-0.3c0,0-0.1,0-0.1,0c-0.2,0-0.3,0-0.5,0c-0.7,0-1.3,0-2,0
			c-0.2,0-0.4,0-0.6,0.1c-0.4,0-0.8,0.1-1.2,0.1c-0.4,0-0.8,0.1-1.2,0.1c-0.3,0-0.6,0.1-1,0.2c-0.5,0.1-1.1,0.2-1.6,0.3
			c-0.3,0.1-0.6,0.1-0.9,0.2c-0.3,0.1-0.6,0.2-0.9,0.3c-0.9,0.3-1.8,0.6-2.8,1c-0.3,0.1-0.7,0.2-1,0.3c-0.2,0.1-0.4,0.2-0.6,0.3
			c-1.6,0.7-3.3,1.5-4.9,2.4L139.9,339.1c-1.3,0.7-2.5,1.5-3.8,2.4c-0.4,0.3-0.8,0.6-1.2,0.9c-0.8,0.6-1.7,1.2-2.5,1.9
			c-0.5,0.4-0.9,0.7-1.3,1.1c-0.8,0.6-1.5,1.3-2.2,2c-0.4,0.4-0.9,0.8-1.3,1.2c-0.3,0.3-0.5,0.5-0.8,0.8c-0.3,0.3-0.6,0.6-0.9,0.9
			c-0.9,0.9-1.8,1.8-2.6,2.8c-0.3,0.3-0.6,0.6-0.8,0.9c-0.2,0.3-0.5,0.6-0.7,0.8c-0.5,0.6-1,1.3-1.6,1.9c-0.3,0.4-0.7,0.8-1,1.2
			c-0.3,0.4-0.5,0.7-0.8,1.1c-0.4,0.5-0.7,1-1.1,1.5c-0.2,0.3-0.5,0.7-0.7,1c-0.4,0.6-0.8,1.2-1.2,1.8c-0.3,0.4-0.5,0.8-0.8,1.2
			c-0.1,0.2-0.2,0.3-0.3,0.5c-0.7,1.1-1.4,2.2-2.1,3.4c0,0.1-0.1,0.1-0.1,0.2c-0.1,0.2-0.2,0.4-0.4,0.7c-0.5,0.8-0.9,1.6-1.4,2.5
			c-0.2,0.4-0.4,0.7-0.6,1.1c-0.2,0.4-0.4,0.8-0.6,1.2c-0.2,0.4-0.4,0.7-0.5,1.1c-0.4,0.9-0.8,1.8-1.2,2.7c-0.1,0.2-0.2,0.4-0.3,0.6
			c0,0.1-0.1,0.1-0.1,0.2c-0.5,1.2-1,2.4-1.5,3.6c-0.1,0.2-0.1,0.4-0.2,0.6c-0.2,0.4-0.3,0.9-0.5,1.3c-0.2,0.6-0.5,1.2-0.7,1.9
			c-0.1,0.4-0.3,0.9-0.4,1.3c-0.2,0.5-0.3,1.1-0.5,1.6c-0.1,0.4-0.2,0.7-0.3,1.1c-0.2,0.6-0.3,1.2-0.4,1.7c-0.2,0.7-0.3,1.3-0.5,2
			c-0.1,0.2-0.1,0.5-0.2,0.8c-0.1,0.5-0.2,1-0.2,1.4c-0.2,1-0.4,2.1-0.5,3.1c0,0.3-0.1,0.6-0.2,0.9c0,0.3,0,0.5-0.1,0.8
			c-0.3,2.3-0.5,4.6-0.4,6.8l1.2,419.6c0,12.4,4.5,21.2,11.6,25.3L156,877c-7.1-4.1-11.5-12.9-11.6-25.3l-1.2-419.6
			c0-2.2,0.2-4.5,0.4-6.8c0.1-0.6,0.1-1.1,0.2-1.7c0.1-1,0.3-2.1,0.5-3.1c0.1-0.7,0.3-1.5,0.4-2.2c0.2-0.7,0.3-1.3,0.5-2
			c0.2-0.9,0.5-1.9,0.8-2.8c0.2-0.5,0.3-1.1,0.5-1.6c0.3-1.1,0.7-2.1,1.1-3.2c0.2-0.4,0.3-0.9,0.5-1.3c0.5-1.5,1.1-2.9,1.8-4.3
			c0.1-0.2,0.2-0.4,0.3-0.6c0.6-1.2,1.1-2.5,1.8-3.7c0.2-0.4,0.4-0.8,0.6-1.2c0.6-1.2,1.3-2.4,1.9-3.5c0.1-0.2,0.3-0.5,0.4-0.7
			c0.8-1.4,1.6-2.7,2.5-4.1c0.3-0.4,0.5-0.8,0.8-1.2c0.6-0.9,1.3-1.9,1.9-2.8c0.4-0.5,0.7-1,1.1-1.5c0.6-0.8,1.2-1.5,1.8-2.3
			c0.5-0.6,1-1.3,1.6-1.9c0.5-0.6,1-1.1,1.5-1.7c0.9-1,1.7-1.9,2.6-2.8c0.5-0.6,1.1-1.1,1.7-1.7c0.4-0.4,0.9-0.8,1.3-1.2
			c0.7-0.7,1.5-1.3,2.2-2c0.4-0.4,0.9-0.8,1.3-1.1c0.8-0.6,1.6-1.3,2.5-1.9c0.4-0.3,0.8-0.6,1.2-0.9c1.2-0.8,2.5-1.7,3.7-2.4
			L702.5,63.8c1.7-1,3.3-1.7,4.9-2.4C708,61.1,708.5,60.9,709,60.7z"/>
		<g>
			<linearGradient id="SVGID_6_" gradientUnits="userSpaceOnUse" x1="143.221" y1="469.0479" x2="743.3876" y2="469.0479">
				<stop  offset="0" style="stop-color:#F6F6F9"/>
				<stop  offset="1" style="stop-color:#D7D8D5"/>
			</linearGradient>
			<path class="st11" d="M702.5,63.8c21.7-12.6,39.6-2.4,39.6,22.6l1.2,419.6c0.1,25-17.7,55.7-39.4,68.2L184.1,874.3
				c-21.7,12.6-39.6,2.4-39.6-22.6l-1.2-419.6c-0.1-24.9,17.7-55.6,39.4-68.2L702.5,63.8z"/>
		</g>
	</g>
</g>
<linearGradient id="SVGID_7_" gradientUnits="userSpaceOnUse" x1="183.5973" y1="470.2876" x2="720.1375" y2="470.2876">
	<stop  offset="0" style="stop-color:#FFA21E"/>
	<stop  offset="1" style="stop-color:#FFCB27"/>
</linearGradient>
<path class="st12" d="M719.2,145c-0.1-20.3-14.6-28.6-32.2-18.4l-47.4,27.3c-0.3,0.1-0.5,0.3-0.8,0.4L215.6,398.6
	c-17.7,10.2-32.1,35.2-32,55.5l1,341.4c0.1,20.3,14.6,28.6,32.2,18.4l47.4-27.3c0.3-0.1,0.5-0.3,0.8-0.4l423.1-244.3
	c17.7-10.2,32.1-35.2,32-55.5L719.2,145z"/>
<g>
	<path class="st13" d="M360.2,556.6c0.1-2,0.2-4,0.3-6.1c0-0.4,0.1-0.7,0.1-1.1c0.1-1.9,0.3-3.8,0.5-5.7c0-0.3,0.1-0.6,0.1-0.9
		c0.2-2.1,0.4-4.1,0.7-6.2c0.1-0.6,0.1-1.1,0.2-1.7c0.1-0.9,0.3-1.8,0.4-2.8c0.1-0.7,0.2-1.3,0.3-2c0.1-0.9,0.3-1.9,0.5-2.8
		c0.1-0.6,0.2-1.3,0.3-1.9c0.2-1,0.4-2,0.5-3c0.1-0.6,0.2-1.2,0.3-1.8c0.2-1.2,0.5-2.3,0.7-3.5c0.1-0.4,0.2-0.9,0.3-1.3
		c0.1-0.4,0.2-0.9,0.3-1.3c0.2-1,0.4-2,0.7-3c0.1-0.6,0.3-1.1,0.4-1.7c0.2-0.9,0.4-1.7,0.6-2.6c0.1-0.6,0.3-1.2,0.5-1.8
		c0.2-0.8,0.4-1.7,0.6-2.5c0.2-0.6,0.3-1.2,0.5-1.9c0.2-0.7,0.4-1.4,0.6-2.1c0.6-2.1,1.2-4.2,1.9-6.4c0.1-0.4,0.2-0.7,0.3-1.1
		c0.6-2,1.3-4,1.9-6c0.1-0.3,0.2-0.5,0.3-0.8c0.7-2,1.4-4,2.1-5.9c0.2-0.5,0.3-0.9,0.5-1.4c0.6-1.8,1.3-3.6,2-5.4
		c0.1-0.2,0.2-0.5,0.3-0.7c0.7-1.9,1.5-3.8,2.3-5.7c0.2-0.5,0.4-1,0.6-1.4c0.7-1.6,1.3-3.2,2-4.7c0.2-0.4,0.3-0.8,0.5-1.2
		c0.8-1.8,1.6-3.7,2.5-5.5c0.2-0.4,0.4-0.8,0.6-1.3c0.7-1.5,1.4-3,2.1-4.4c0.2-0.5,0.5-1,0.7-1.5c0.9-1.8,1.8-3.6,2.7-5.4
		c0.1-0.2,0.2-0.4,0.3-0.6c0.8-1.6,1.7-3.3,2.5-4.9c0.3-0.5,0.5-1,0.8-1.5c0.8-1.6,1.7-3.1,2.6-4.7c0.1-0.3,0.3-0.5,0.4-0.8
		c1-1.8,2-3.6,3-5.3c0.3-0.4,0.5-0.9,0.8-1.3c0.9-1.5,1.8-3,2.7-4.5c0.2-0.4,0.4-0.7,0.7-1.1c1.1-1.8,2.2-3.5,3.3-5.3
		c0.2-0.4,0.5-0.8,0.7-1.1c1-1.6,2.1-3.2,3.2-4.8c0.2-0.3,0.4-0.7,0.7-1c1.2-1.8,2.4-3.6,3.7-5.4c0.3-0.4,0.5-0.8,0.8-1.1
		c1.4-2,2.8-3.9,4.2-5.9c0,0,0.1-0.1,0.1-0.1c1.4-1.9,2.8-3.8,4.3-5.7c0.3-0.3,0.5-0.7,0.8-1c1.7-2.1,3.3-4.2,5-6.3
		c0.3-0.3,0.5-0.6,0.8-0.9c1.7-2.1,3.4-4.1,5.2-6.1c0.3-0.4,0.7-0.8,1-1.2c0.8-0.9,1.6-1.8,2.4-2.7c0.4-0.4,0.8-0.9,1.2-1.3
		c1.1-1.2,2.2-2.4,3.3-3.5c0.1-0.1,0.2-0.2,0.3-0.4c1.2-1.3,2.4-2.5,3.6-3.8c0.4-0.4,0.7-0.8,1.1-1.1c0.9-0.9,1.7-1.7,2.6-2.6
		c0.6-0.6,1.2-1.2,1.8-1.7c0.4-0.4,0.8-0.7,1.1-1.1c0.7-0.7,1.5-1.4,2.2-2.1c0.3-0.3,0.6-0.6,0.9-0.9c1-1,2.1-1.9,3.1-2.9
		c0.2-0.2,0.3-0.3,0.5-0.5c0.9-0.8,1.8-1.6,2.7-2.4c0.4-0.3,0.7-0.6,1.1-1c0.7-0.6,1.4-1.2,2.1-1.8c0.4-0.3,0.8-0.7,1.2-1
		c0.7-0.6,1.4-1.1,2-1.7c0.4-0.3,0.8-0.7,1.3-1c0.7-0.6,1.4-1.1,2.1-1.7c0.4-0.3,0.8-0.6,1.2-0.9c0.9-0.7,1.7-1.3,2.6-2
		c0.2-0.2,0.5-0.4,0.7-0.5c1.1-0.8,2.2-1.6,3.3-2.5c0.3-0.2,0.6-0.4,0.9-0.7c0.8-0.6,1.6-1.2,2.4-1.7c0.4-0.3,0.8-0.6,1.2-0.8
		c0.7-0.5,1.4-1,2.2-1.5c0.4-0.3,0.9-0.6,1.3-0.9c0.7-0.5,1.4-0.9,2.2-1.4c0.4-0.3,0.9-0.5,1.3-0.8c0.8-0.5,1.6-1,2.3-1.5
		c0.4-0.2,0.7-0.5,1.1-0.7c1.1-0.7,2.3-1.4,3.4-2c1.5-0.9,3-1.7,4.6-2.5c0.4-0.2,0.9-0.5,1.3-0.7c1.2-0.6,2.3-1.2,3.5-1.8
		c0.4-0.2,0.8-0.4,1.2-0.6c1.5-0.7,3-1.4,4.5-2.1c0.2-0.1,0.5-0.2,0.7-0.3c1.2-0.6,2.5-1.1,3.7-1.6c0.5-0.2,0.9-0.4,1.4-0.6
		c0.9-0.4,1.7-0.7,2.6-1c0.5-0.2,1-0.4,1.4-0.6c1-0.4,1.9-0.7,2.8-1c0.4-0.1,0.7-0.3,1.1-0.4c1.3-0.4,2.6-0.9,3.9-1.3
		c0.2-0.1,0.5-0.1,0.7-0.2c1-0.3,2.1-0.6,3.1-0.9c0.6-0.2,1.2-0.3,1.9-0.5c0.5-0.1,0.9-0.2,1.4-0.4c0.7-0.2,1.4-0.3,2-0.5
		c0.4-0.1,0.8-0.2,1.3-0.3c0.8-0.2,1.5-0.3,2.3-0.5c0.3-0.1,0.7-0.1,1-0.2c1.1-0.2,2.2-0.4,3.2-0.5c0.1,0,0.1,0,0.2,0
		c0.9-0.1,1.9-0.3,2.8-0.4c0.3,0,0.7-0.1,1-0.1c0.7-0.1,1.4-0.2,2.1-0.2c0.4,0,0.7-0.1,1.1-0.1c0.7-0.1,1.3-0.1,2-0.1
		c0.3,0,0.7,0,1-0.1c0.9,0,1.7-0.1,2.6-0.1c0.1,0,0.2,0,0.3,0c0.9,0,1.9,0,2.8,0c0.3,0,0.5,0,0.8,0c0.7,0,1.4,0,2,0.1
		c0.3,0,0.6,0,0.9,0c0.4,0,0.8,0.1,1.2,0.1c1.1,0.1,2.1,0.2,3.2,0.3c0.3,0,0.6,0.1,0.9,0.1c1.3,0.2,2.5,0.3,3.8,0.5
		c0.3,0,0.5,0.1,0.8,0.2c1,0.2,2,0.4,2.9,0.6c0.3,0.1,0.7,0.1,1,0.2c1.2,0.3,2.4,0.6,3.5,0.9c0.1,0,0.2,0.1,0.3,0.1
		c1.1,0.3,2.1,0.7,3.2,1c0.3,0.1,0.6,0.2,1,0.3c0.9,0.3,1.8,0.7,2.7,1.1c0.2,0.1,0.4,0.2,0.6,0.3c1.1,0.5,2.2,1,3.2,1.5
		c0.3,0.1,0.5,0.3,0.8,0.4c0.8,0.4,1.7,0.9,2.5,1.3c0.4,0.2,0.9,0.5,1.3,0.7l-38.1-22.1c-0.3-0.2-0.5-0.3-0.8-0.4
		c-0.2-0.1-0.3-0.2-0.5-0.3c-0.8-0.5-1.7-0.9-2.5-1.3c-0.3-0.1-0.5-0.3-0.8-0.4c-1.1-0.5-2.1-1-3.2-1.5c-0.1,0-0.1,0-0.2-0.1
		c-0.2-0.1-0.3-0.1-0.5-0.2c-0.9-0.4-1.8-0.7-2.7-1.1c-0.3-0.1-0.6-0.2-1-0.3c-1-0.4-2.1-0.7-3.2-1c-0.1,0-0.2-0.1-0.2-0.1
		c0,0,0,0-0.1,0c-1.2-0.3-2.3-0.6-3.5-0.9c-0.3-0.1-0.6-0.1-1-0.2c-1-0.2-1.9-0.4-2.9-0.6c-0.2,0-0.4-0.1-0.6-0.1
		c-0.1,0-0.2,0-0.2,0c-1.2-0.2-2.5-0.4-3.8-0.5c-0.3,0-0.6-0.1-0.9-0.1c-1.1-0.1-2.1-0.2-3.2-0.3c-0.2,0-0.4,0-0.6-0.1
		c-0.2,0-0.4,0-0.6,0c-0.3,0-0.6,0-0.9,0c-0.7,0-1.4-0.1-2-0.1c-0.3,0-0.5,0-0.8,0c-0.9,0-1.9,0-2.8,0c-0.1,0-0.2,0-0.3,0
		c-0.7,0-1.4,0-2.1,0.1c-0.2,0-0.3,0-0.5,0c-0.3,0-0.7,0-1,0.1c-0.7,0-1.3,0.1-2,0.1c-0.4,0-0.7,0.1-1.1,0.1
		c-0.7,0.1-1.4,0.1-2.1,0.2c-0.3,0-0.7,0.1-1,0.1c-0.9,0.1-1.9,0.2-2.8,0.4c-0.1,0-0.1,0-0.2,0c0,0,0,0,0,0
		c-1.1,0.2-2.1,0.3-3.2,0.5c-0.3,0.1-0.7,0.1-1,0.2c-0.8,0.1-1.5,0.3-2.3,0.5c-0.4,0.1-0.8,0.2-1.3,0.3c-0.7,0.2-1.3,0.3-2,0.5
		c-0.5,0.1-0.9,0.2-1.4,0.4c-0.5,0.1-1,0.2-1.5,0.4c-0.1,0-0.3,0.1-0.4,0.1c-1,0.3-2.1,0.6-3.1,0.9c-0.2,0.1-0.5,0.1-0.7,0.2
		c-1.3,0.4-2.6,0.8-3.9,1.3c-0.4,0.1-0.7,0.3-1.1,0.4c-0.9,0.3-1.9,0.7-2.8,1c-0.5,0.2-1,0.4-1.4,0.6c-0.9,0.3-1.7,0.7-2.6,1
		c-0.3,0.1-0.5,0.2-0.8,0.3c-0.2,0.1-0.4,0.2-0.6,0.3c-1.2,0.5-2.5,1.1-3.7,1.6c-0.2,0.1-0.5,0.2-0.7,0.3c-1.5,0.7-3,1.4-4.5,2.1
		c-0.4,0.2-0.8,0.4-1.2,0.6c-1.2,0.6-2.3,1.2-3.5,1.8c-0.4,0.2-0.9,0.5-1.3,0.7c-1.5,0.8-3,1.7-4.6,2.5c-1.2,0.7-2.3,1.3-3.4,2
		c-0.4,0.2-0.7,0.5-1.1,0.7c-0.8,0.5-1.6,1-2.3,1.5c-0.4,0.3-0.9,0.5-1.3,0.8c-0.7,0.5-1.4,0.9-2.2,1.4c-0.4,0.3-0.9,0.6-1.3,0.9
		c-0.7,0.5-1.4,1-2.2,1.5c-0.4,0.3-0.8,0.6-1.2,0.9c-0.8,0.6-1.6,1.1-2.4,1.7c-0.3,0.2-0.6,0.4-0.9,0.7c-1.1,0.8-2.2,1.6-3.3,2.5
		c-0.2,0.2-0.5,0.4-0.7,0.5c-0.9,0.7-1.7,1.3-2.6,2c-0.4,0.3-0.8,0.6-1.2,0.9c-0.7,0.6-1.4,1.1-2.1,1.7c-0.4,0.3-0.8,0.7-1.2,1
		c-0.7,0.6-1.4,1.1-2.1,1.7c-0.4,0.3-0.8,0.7-1.2,1c-0.7,0.6-1.4,1.2-2.1,1.8c-0.4,0.3-0.7,0.6-1.1,1c-0.9,0.8-1.8,1.6-2.7,2.4
		c-0.2,0.2-0.3,0.3-0.5,0.5c-1.1,1-2.1,1.9-3.1,2.9c-0.3,0.3-0.6,0.6-0.9,0.9c-0.7,0.7-1.5,1.4-2.2,2.1c-0.4,0.4-0.8,0.7-1.1,1.1
		c-0.4,0.4-0.8,0.8-1.2,1.2c-0.2,0.2-0.4,0.4-0.6,0.6c-0.9,0.9-1.7,1.7-2.6,2.6c-0.4,0.4-0.7,0.8-1.1,1.1c-1.2,1.3-2.4,2.5-3.6,3.8
		c-0.1,0.1-0.2,0.2-0.3,0.4c-1.1,1.2-2.2,2.3-3.2,3.5c-0.4,0.4-0.8,0.9-1.2,1.3c-0.8,0.9-1.6,1.8-2.4,2.7c-0.2,0.2-0.4,0.5-0.6,0.7
		c-0.1,0.2-0.3,0.3-0.4,0.5c-1.7,2-3.5,4-5.2,6.1c-0.3,0.3-0.5,0.6-0.8,0.9c-1.7,2.1-3.4,4.2-5,6.3c-0.1,0.1-0.2,0.2-0.3,0.3
		c-0.2,0.2-0.3,0.4-0.5,0.6c-1.4,1.9-2.9,3.8-4.3,5.7c0,0-0.1,0.1-0.1,0.1c-1.4,1.9-2.8,3.9-4.2,5.9c-0.2,0.2-0.3,0.4-0.5,0.6
		c-0.1,0.2-0.2,0.3-0.3,0.5c-1.2,1.8-2.5,3.6-3.7,5.4c-0.2,0.3-0.4,0.7-0.7,1c-1.1,1.6-2.1,3.2-3.1,4.8c-0.2,0.2-0.3,0.5-0.5,0.7
		c-0.1,0.1-0.2,0.3-0.3,0.4c-1.1,1.8-2.2,3.5-3.3,5.3c-0.2,0.4-0.4,0.7-0.7,1.1c-0.9,1.5-1.8,3-2.7,4.5c-0.2,0.3-0.3,0.5-0.5,0.8
		c-0.1,0.2-0.2,0.4-0.3,0.5c-1,1.8-2,3.5-3,5.3c-0.1,0.3-0.3,0.5-0.4,0.8c-0.9,1.6-1.7,3.1-2.6,4.7c-0.1,0.3-0.3,0.5-0.4,0.8
		c-0.1,0.2-0.3,0.5-0.4,0.7c-0.9,1.6-1.7,3.2-2.5,4.9c-0.1,0.2-0.2,0.4-0.3,0.6c-0.9,1.8-1.8,3.6-2.7,5.4c-0.1,0.2-0.2,0.4-0.3,0.6
		c-0.1,0.3-0.3,0.6-0.4,0.9c-0.7,1.5-1.4,3-2.1,4.4c-0.2,0.4-0.4,0.8-0.6,1.3c-0.8,1.8-1.7,3.7-2.5,5.5c0,0.1-0.1,0.2-0.2,0.3
		c-0.1,0.3-0.2,0.6-0.3,0.8c-0.7,1.6-1.3,3.1-2,4.7c-0.2,0.5-0.4,1-0.6,1.5c-0.8,1.9-1.5,3.8-2.3,5.7c0,0.1,0,0.1-0.1,0.2
		c-0.1,0.2-0.1,0.4-0.2,0.6c-0.7,1.8-1.3,3.6-2,5.4c-0.2,0.5-0.3,0.9-0.5,1.4c-0.7,2-1.4,4-2.1,5.9c0,0.1-0.1,0.2-0.1,0.2
		c-0.1,0.2-0.1,0.4-0.2,0.6c-0.7,2-1.3,4-1.9,6c-0.1,0.4-0.2,0.7-0.3,1.1c-0.6,2.1-1.3,4.2-1.8,6.3c-0.1,0.2-0.1,0.4-0.2,0.6
		c-0.1,0.5-0.3,1-0.4,1.5c-0.2,0.6-0.3,1.2-0.5,1.9c-0.2,0.8-0.4,1.7-0.7,2.5c-0.2,0.6-0.3,1.2-0.5,1.8c-0.2,0.9-0.4,1.8-0.6,2.6
		c-0.1,0.6-0.3,1.1-0.4,1.7c-0.2,1-0.4,2-0.7,3c-0.1,0.4-0.2,0.9-0.3,1.3c0,0.1,0,0.1,0,0.2c-0.1,0.4-0.2,0.8-0.2,1.1
		c-0.2,1.2-0.5,2.3-0.7,3.5c-0.1,0.6-0.2,1.2-0.3,1.8c-0.2,1-0.4,2-0.5,3c-0.1,0.6-0.2,1.3-0.3,1.9c-0.2,0.9-0.3,1.9-0.5,2.8
		c-0.1,0.7-0.2,1.3-0.3,2c-0.1,0.9-0.3,1.8-0.4,2.8c0,0.4-0.1,0.7-0.1,1.1c0,0.2,0,0.4-0.1,0.6c-0.3,2.1-0.5,4.1-0.7,6.2
		c0,0.3-0.1,0.6-0.1,0.9c-0.2,1.9-0.3,3.8-0.5,5.7c0,0.4-0.1,0.7-0.1,1.1c-0.1,2-0.2,4.1-0.3,6.1c0,0.4,0,0.9,0,1.3
		c-0.1,2.1-0.1,4.1-0.1,6.2c0.1,45.2,16.1,77,41.8,91.9l38.1,22.1c-25.7-15-41.7-46.7-41.8-91.9c0-2.1,0-4.1,0.1-6.2
		C360.2,557.5,360.2,557.1,360.2,556.6z"/>
	<g>
		<path class="st13" d="M502.9,316.6c79.2-45.7,143.5-9,143.8,81.9S583,600.4,503.8,646.1c-79.2,45.7-143.5,9-143.8-81.9
			S423.8,362.3,502.9,316.6z"/>
	</g>
</g>
<g>
	<linearGradient id="SVGID_8_" gradientUnits="userSpaceOnUse" x1="477.015" y1="451.5034" x2="614.3312" y2="451.5034">
		<stop  offset="0" style="stop-color:#FFA21E"/>
		<stop  offset="1" style="stop-color:#FFCB27"/>
	</linearGradient>
	<path class="st14" d="M586.8,402.3c0.3-0.5,0.7-1.1,1-1.6c0,0,0,0,0,0c0.4-0.6,0.8-1.1,1.2-1.6c0.1-0.1,0.2-0.2,0.2-0.3
		c0.5-0.6,0.9-1.2,1.4-1.7c0.1-0.1,0.2-0.2,0.3-0.4c0.2-0.2,0.4-0.5,0.7-0.7c0.1-0.1,0.2-0.3,0.4-0.4c0.3-0.3,0.5-0.5,0.8-0.8
		c0.1-0.1,0.2-0.2,0.3-0.3c0.5-0.5,1-1,1.5-1.4c0.1-0.1,0.2-0.1,0.2-0.2c0.5-0.4,1-0.8,1.5-1.2c0.1-0.1,0.2-0.1,0.3-0.2
		c0.5-0.4,1-0.8,1.5-1.1c0.1,0,0.1-0.1,0.2-0.1c0.5-0.4,1.1-0.7,1.6-1c0.4-0.2,0.9-0.5,1.3-0.7c0.1-0.1,0.2-0.1,0.3-0.2
		c0.4-0.2,0.8-0.4,1.2-0.5c0,0,0.1,0,0.1,0c0.4-0.2,0.7-0.3,1.1-0.4c0.1,0,0.2-0.1,0.3-0.1c0.3-0.1,0.5-0.2,0.8-0.2
		c0.2,0,0.3-0.1,0.5-0.1c0.1,0,0.3-0.1,0.4-0.1c0.2,0,0.3-0.1,0.5-0.1c0.1,0,0.3-0.1,0.4-0.1c0.1,0,0.2,0,0.3,0
		c0.5-0.1,0.9-0.1,1.4-0.1l0,0c0.4,0,0.8,0,1.2,0c0.1,0,0.2,0,0.3,0c0.3,0,0.6,0.1,0.9,0.1c0.1,0,0.1,0,0.2,0c0.3,0.1,0.7,0.1,1,0.2
		c0.1,0,0.2,0.1,0.3,0.1c0.2,0.1,0.5,0.2,0.7,0.3c0.1,0,0.2,0.1,0.3,0.1c0.3,0.1,0.6,0.3,0.8,0.4c0,0,0.1,0,0.1,0.1l-32.7-19
		c0,0,0,0,0,0c0,0-0.1,0-0.1,0c-0.3-0.1-0.5-0.3-0.8-0.4c0,0-0.1,0-0.1-0.1c-0.1,0-0.1,0-0.2-0.1c-0.2-0.1-0.5-0.2-0.7-0.3
		c-0.1,0-0.1,0-0.2-0.1c0,0-0.1,0-0.1,0c-0.3-0.1-0.7-0.2-1-0.2c0,0,0,0,0,0c0,0-0.1,0-0.1,0c-0.3-0.1-0.6-0.1-0.9-0.1
		c-0.1,0-0.1,0-0.2,0c0,0-0.1,0-0.1,0c-0.4,0-0.8,0-1.2,0h0l0,0c-0.4,0-0.9,0.1-1.4,0.1c-0.1,0-0.1,0-0.2,0c-0.1,0-0.1,0-0.2,0
		c-0.1,0-0.3,0.1-0.4,0.1c-0.2,0-0.3,0.1-0.5,0.1c-0.1,0-0.3,0.1-0.4,0.1c-0.1,0-0.2,0-0.3,0.1c-0.1,0-0.1,0-0.2,0.1
		c-0.3,0.1-0.5,0.2-0.8,0.2c-0.1,0-0.2,0.1-0.3,0.1c-0.4,0.1-0.7,0.3-1.1,0.4c0,0,0,0,0,0c0,0-0.1,0-0.1,0c-0.4,0.2-0.8,0.3-1.2,0.5
		c-0.1,0.1-0.2,0.1-0.3,0.2c-0.4,0.2-0.9,0.4-1.3,0.7c-0.5,0.3-1.1,0.6-1.6,1c-0.1,0-0.1,0.1-0.2,0.1c-0.5,0.3-1,0.7-1.5,1.1
		c-0.1,0.1-0.2,0.1-0.3,0.2c-0.5,0.4-1,0.8-1.5,1.2c-0.1,0.1-0.2,0.1-0.2,0.2c-0.5,0.4-1,0.9-1.5,1.4c0,0,0,0,0,0
		c-0.1,0.1-0.1,0.1-0.2,0.2c-0.3,0.3-0.5,0.5-0.8,0.8c-0.1,0.1-0.2,0.3-0.4,0.4c-0.2,0.2-0.4,0.5-0.7,0.7c-0.1,0.1-0.1,0.1-0.2,0.2
		c0,0-0.1,0.1-0.1,0.1c-0.5,0.6-0.9,1.1-1.4,1.7c0,0-0.1,0.1-0.1,0.1c0,0.1-0.1,0.1-0.1,0.2c-0.4,0.5-0.8,1.1-1.2,1.6c0,0,0,0,0,0
		l0,0c-0.4,0.5-0.7,1-1,1.6c0,0.1-0.1,0.1-0.1,0.2c0,0.1-0.1,0.2-0.1,0.2c-0.3,0.4-0.5,0.8-0.8,1.3c0,0.1-0.1,0.2-0.1,0.2
		c0,0.1-0.1,0.1-0.1,0.2L477,516.6l32.7,19l75.7-131.1c0.1-0.2,0.2-0.3,0.3-0.4c0.3-0.4,0.5-0.8,0.8-1.3
		C586.6,402.6,586.7,402.5,586.8,402.3z"/>
	<g>
		<linearGradient id="SVGID_9_" gradientUnits="userSpaceOnUse" x1="433.0705" y1="513.5502" x2="509.7473" y2="513.5502">
			<stop  offset="0" style="stop-color:#FFA21E"/>
			<stop  offset="1" style="stop-color:#FFCB27"/>
		</linearGradient>
		<polygon class="st15" points="465.8,510.5 433.1,491.5 477,516.6 509.7,535.6 		"/>
	</g>
	<linearGradient id="SVGID_10_" gradientUnits="userSpaceOnUse" x1="398.4437" y1="525.3211" x2="465.8028" y2="525.3211">
		<stop  offset="0" style="stop-color:#FFA21E"/>
		<stop  offset="1" style="stop-color:#FFCB27"/>
	</linearGradient>
	<path class="st16" d="M433.1,491.5C433.1,491.5,433,491.5,433.1,491.5c-0.1,0-0.1,0-0.1-0.1c-0.3-0.1-0.5-0.3-0.8-0.4
		c0,0-0.1,0-0.1-0.1c-0.1,0-0.1,0-0.2-0.1c-0.2-0.1-0.5-0.2-0.7-0.2c-0.1,0-0.1,0-0.2-0.1c0,0-0.1,0-0.1,0c-0.3-0.1-0.6-0.2-1-0.2
		c0,0,0,0,0,0c0,0-0.1,0-0.1,0c-0.3,0-0.6-0.1-0.9-0.1c-0.1,0-0.1,0-0.1,0c0,0-0.1,0-0.1,0c-0.4,0-0.8,0-1.1,0h0l0,0
		c-0.4,0-0.9,0.1-1.3,0.1c-0.1,0-0.1,0-0.1,0c-0.1,0-0.1,0-0.2,0c-0.1,0-0.3,0-0.4,0.1c-0.2,0-0.3,0.1-0.5,0.1
		c-0.1,0-0.3,0.1-0.4,0.1c-0.1,0-0.2,0-0.3,0.1c-0.1,0-0.1,0-0.2,0.1c-0.3,0.1-0.5,0.1-0.8,0.2c-0.1,0-0.2,0.1-0.3,0.1
		c-0.4,0.1-0.7,0.3-1.1,0.4c0,0,0,0,0,0c0,0,0,0-0.1,0c-0.4,0.2-0.8,0.3-1.2,0.5c-0.1,0.1-0.2,0.1-0.3,0.2c-0.4,0.2-0.8,0.4-1.2,0.7
		c-0.6,0.3-1.2,0.7-1.8,1.1c-0.2,0.1-0.4,0.3-0.6,0.4c-0.4,0.3-0.8,0.6-1.2,0.9c-0.2,0.2-0.5,0.4-0.7,0.6c-0.4,0.3-0.7,0.6-1.1,0.9
		c-0.2,0.2-0.5,0.4-0.7,0.7c-0.2,0.2-0.4,0.4-0.6,0.6c-0.2,0.2-0.4,0.4-0.6,0.6c-0.1,0.1-0.2,0.2-0.3,0.3c-0.4,0.4-0.8,0.9-1.3,1.4
		c-0.1,0.1-0.1,0.2-0.2,0.2c-0.2,0.3-0.5,0.6-0.7,0.8c-0.2,0.3-0.5,0.5-0.7,0.8c-0.1,0.1-0.2,0.3-0.3,0.4c-0.2,0.2-0.3,0.5-0.5,0.7
		c-0.2,0.2-0.3,0.5-0.5,0.7c-0.2,0.3-0.4,0.5-0.5,0.8c-0.1,0.2-0.3,0.4-0.4,0.6c-0.1,0.1-0.1,0.2-0.2,0.3c-0.4,0.6-0.7,1.1-1,1.7
		c0,0.1-0.1,0.1-0.1,0.2l-0.9,1.6c-0.3,0.5-0.5,0.9-0.8,1.4c0,0,0,0.1-0.1,0.1c0,0.1-0.1,0.2-0.1,0.3c-0.2,0.4-0.4,0.8-0.6,1.2
		c0,0.1-0.1,0.2-0.1,0.2c0,0.1-0.1,0.1-0.1,0.2c-0.2,0.4-0.4,0.8-0.6,1.3c0,0.1-0.1,0.1-0.1,0.2c0,0,0,0,0,0.1
		c-0.2,0.5-0.4,1-0.6,1.6c0,0,0,0.1-0.1,0.1c0,0.1-0.1,0.2-0.1,0.2c-0.2,0.5-0.3,0.9-0.5,1.4c0,0.1-0.1,0.2-0.1,0.2c0,0,0,0.1,0,0.1
		c-0.2,0.6-0.4,1.2-0.5,1.7c0,0.1,0,0.1,0,0.2c0,0.1,0,0.1,0,0.2c-0.2,0.7-0.3,1.3-0.5,2c0,0,0,0.1,0,0.1c0,0.1,0,0.2-0.1,0.3
		c-0.1,0.3-0.1,0.6-0.2,0.8c0,0.2-0.1,0.3-0.1,0.5c0,0.3-0.1,0.5-0.1,0.8c0,0.1,0,0.2,0,0.3c0,0.1,0,0.1,0,0.2
		c0,0.3-0.1,0.6-0.1,0.9c0,0.1,0,0.3,0,0.4c0,0.4-0.1,0.8-0.1,1.3c0,0,0,0.1,0,0.1c0,0.4,0,0.7,0,1.1c0,0.1,0,0.3,0,0.4
		c0,0.3,0,0.5,0,0.8c0,0.1,0,0.3,0,0.4c0,0.3,0,0.5,0.1,0.8c0,0.1,0,0.3,0,0.4c0,0.3,0.1,0.6,0.1,0.8c0,0.1,0,0.2,0,0.3
		c0.1,0.4,0.1,0.7,0.2,1.1c0,0.1,0,0.2,0.1,0.2c0.1,0.3,0.1,0.5,0.2,0.8c0,0.1,0.1,0.2,0.1,0.3c0.1,0.2,0.2,0.4,0.2,0.6
		c0,0.1,0.1,0.2,0.1,0.3c0.1,0.2,0.2,0.4,0.3,0.6c0,0.1,0.1,0.2,0.1,0.3c0.1,0.2,0.3,0.5,0.4,0.7c0,0,0.1,0.1,0.1,0.2
		c0.2,0.3,0.3,0.5,0.5,0.8c0.1,0.1,0.1,0.1,0.2,0.2c0.1,0.2,0.3,0.4,0.4,0.5c0.1,0.1,0.2,0.2,0.2,0.2c0.1,0.1,0.3,0.3,0.4,0.4
		c0.1,0.1,0.2,0.2,0.3,0.2c0.2,0.1,0.3,0.3,0.5,0.4c0.1,0.1,0.2,0.1,0.2,0.2c0.3,0.2,0.5,0.3,0.8,0.5l32.7,19
		c-0.3-0.2-0.5-0.3-0.8-0.5c-0.1-0.1-0.2-0.1-0.2-0.2c-0.2-0.1-0.3-0.3-0.5-0.4c-0.1-0.1-0.2-0.1-0.3-0.2c-0.1-0.1-0.3-0.3-0.4-0.4
		c-0.1-0.1-0.2-0.2-0.2-0.2c-0.1-0.2-0.3-0.3-0.4-0.5c-0.1-0.1-0.1-0.1-0.2-0.2c-0.2-0.3-0.4-0.5-0.5-0.8c0,0-0.1-0.1-0.1-0.2
		c-0.1-0.2-0.3-0.5-0.4-0.7c-0.1-0.1-0.1-0.2-0.1-0.3c-0.1-0.2-0.2-0.4-0.3-0.6c0-0.1-0.1-0.2-0.1-0.3c-0.1-0.2-0.2-0.4-0.2-0.6
		c0-0.1-0.1-0.2-0.1-0.3c-0.1-0.3-0.2-0.5-0.2-0.8c0-0.1,0-0.2-0.1-0.2c-0.1-0.3-0.2-0.7-0.2-1.1c0-0.1,0-0.2,0-0.3
		c0-0.3-0.1-0.5-0.1-0.8c0-0.1,0-0.3,0-0.4c0-0.3-0.1-0.5-0.1-0.8c0-0.1,0-0.3,0-0.4c0-0.3,0-0.5,0-0.8c0-0.1,0-0.3,0-0.4
		c0-0.4,0-0.7,0-1.1c0,0,0-0.1,0-0.1c0-0.4,0-0.8,0.1-1.3c0-0.1,0-0.3,0-0.4c0-0.3,0.1-0.6,0.1-0.9c0-0.2,0-0.3,0.1-0.5
		c0-0.3,0.1-0.5,0.1-0.8c0-0.2,0.1-0.3,0.1-0.5c0-0.3,0.1-0.6,0.2-0.8c0-0.1,0.1-0.3,0.1-0.4c0.1-0.7,0.3-1.3,0.5-2
		c0-0.1,0.1-0.2,0.1-0.3c0.2-0.6,0.3-1.2,0.5-1.7c0-0.1,0.1-0.2,0.1-0.3c0.2-0.5,0.3-0.9,0.5-1.4c0-0.1,0.1-0.3,0.1-0.4
		c0.2-0.5,0.4-1,0.6-1.6c0-0.1,0.1-0.2,0.1-0.3c0.2-0.4,0.4-0.8,0.6-1.3c0.1-0.2,0.1-0.3,0.2-0.5c0.2-0.4,0.4-0.8,0.6-1.2
		c0.1-0.1,0.1-0.3,0.2-0.4c0.2-0.5,0.5-0.9,0.8-1.4l0.9-1.6c0.4-0.8,0.9-1.5,1.4-2.2c0.1-0.2,0.3-0.4,0.4-0.6c0.3-0.5,0.7-1,1-1.5
		c0.2-0.2,0.3-0.5,0.5-0.7c0.3-0.4,0.6-0.8,1-1.2c0.2-0.3,0.5-0.6,0.7-0.8c0.5-0.6,1-1.1,1.5-1.6c0.1-0.1,0.2-0.2,0.3-0.3
		c0.4-0.4,0.8-0.8,1.2-1.2c0.2-0.2,0.5-0.5,0.7-0.7c0.4-0.3,0.7-0.6,1.1-0.9c0.2-0.2,0.5-0.4,0.7-0.6c0.4-0.3,0.8-0.6,1.2-0.9
		c0.2-0.1,0.4-0.3,0.6-0.4c0.6-0.4,1.2-0.8,1.8-1.1c0.4-0.2,0.8-0.5,1.2-0.7c0.1-0.1,0.2-0.1,0.3-0.2c0.4-0.2,0.8-0.4,1.2-0.5
		c0,0,0.1,0,0.1,0c0.4-0.1,0.7-0.3,1.1-0.4c0.1,0,0.2-0.1,0.3-0.1c0.3-0.1,0.5-0.2,0.8-0.2c0.1,0,0.3-0.1,0.4-0.1
		c0.1,0,0.3-0.1,0.4-0.1c0.2,0,0.3-0.1,0.5-0.1c0.1,0,0.3-0.1,0.4-0.1c0.1,0,0.2,0,0.3,0c0.4-0.1,0.9-0.1,1.3-0.1l0,0
		c0.4,0,0.8,0,1.2,0c0.1,0,0.2,0,0.3,0c0.3,0,0.6,0.1,0.9,0.1c0,0,0.1,0,0.2,0c0.3,0.1,0.7,0.1,1,0.2c0.1,0,0.2,0.1,0.3,0.1
		c0.2,0.1,0.5,0.2,0.7,0.2c0.1,0,0.2,0.1,0.3,0.1c0.3,0.1,0.5,0.2,0.8,0.4c0,0,0.1,0,0.1,0.1L433.1,491.5z"/>
	<g>
		<linearGradient id="SVGID_11_" gradientUnits="userSpaceOnUse" x1="431.1735" y1="490.8593" x2="620.3607" y2="490.8593">
			<stop  offset="0" style="stop-color:#FFA21E"/>
			<stop  offset="1" style="stop-color:#FFCB27"/>
		</linearGradient>
		<path class="st17" d="M599.9,389.2c5.2-3,10.5-3.7,14.5-1.5c8,4.6,8,19.4,0.1,33.2l-89.6,155.2l-0.5,0.8l-0.5,0.8
			c-3.8,6.7-8.9,11.8-14,14.7c-5.1,2.9-10.1,3.6-14,1.4l-0.5-0.3L437,560.4c-7.7-4.4-7.8-18.8-0.1-32.1l0.9-1.6
			c3.8-6.7,8.9-11.8,14-14.7c5.1-2.9,10.1-3.6,14-1.4l43.9,25l75.7-131.1C589.4,397.6,594.6,392.3,599.9,389.2z"/>
	</g>
</g>
<g>
	<g class="st5">
		<linearGradient id="SVGID_12_" gradientUnits="userSpaceOnUse" x1="574.4984" y1="770.5128" x2="949.2875" y2="770.5128">
			<stop  offset="0" style="stop-color:#D7D8D5"/>
			<stop  offset="1" style="stop-color:#F6F6F9"/>
		</linearGradient>
		<path class="st18" d="M949.3,738.6c0,0.8-0.2,1.7-0.4,2.5c0,0.1,0,0.2-0.1,0.3c-0.3,0.8-0.7,1.5-1.1,2.3c-0.1,0.1-0.2,0.3-0.3,0.4
			c-0.5,0.7-1.2,1.4-1.9,2.1c-0.5,0.4-1.1,0.8-1.6,1.2c-0.5,0.4-1,0.8-1.5,1.1l-116,67.4c-1.4,0.8-3.1,1.5-4.7,2.1
			c-0.6,0.2-1.2,0.4-1.8,0.6c-0.8,0.2-1.6,0.4-2.4,0.6c-1,0.2-2,0.4-3,0.5c-0.2,0-0.5,0.1-0.7,0.1c-1.4,0.1-2.7,0.2-4.1,0.2
			c-0.2,0-0.4,0-0.6,0c-1.4,0-2.7-0.1-4-0.2c-0.2,0-0.4,0-0.6-0.1c-1.3-0.2-2.6-0.4-3.9-0.7c-0.2-0.1-0.5-0.1-0.7-0.2
			c-1.1-0.3-2.3-0.6-3.3-1c-0.2-0.1-0.4-0.1-0.6-0.2c-1.3-0.5-2.5-1.1-3.7-1.7L581.7,694.4c-4.8-2.8-7.2-6.4-7.1-10l-0.1,36.7
			c0,3.6,2.4,7.2,7.1,10l210.3,121.4c1.1,0.6,2.2,1.2,3.5,1.7c0.1,0,0.1,0,0.2,0.1c0.2,0.1,0.4,0.1,0.6,0.2c0.7,0.3,1.4,0.5,2.1,0.7
			c0.4,0.1,0.8,0.2,1.2,0.3c0.2,0.1,0.5,0.1,0.7,0.2c0.2,0,0.4,0.1,0.6,0.1c0.8,0.2,1.6,0.3,2.4,0.4c0.3,0,0.6,0.1,0.9,0.1
			c0.2,0,0.4,0,0.6,0.1c0.3,0,0.6,0.1,0.9,0.1c0.8,0.1,1.6,0.1,2.4,0.1c0.2,0,0.5,0,0.7,0c0.2,0,0.4,0,0.7,0c0.4,0,0.7,0,1.1,0
			c0.9,0,1.8-0.1,2.7-0.2c0.1,0,0.2,0,0.3,0c0.2,0,0.5-0.1,0.7-0.1c0.7-0.1,1.4-0.2,2.1-0.3c0.3-0.1,0.6-0.2,0.9-0.2
			c0.8-0.2,1.6-0.4,2.4-0.6c0.4-0.1,0.9-0.2,1.3-0.3c0.2-0.1,0.3-0.2,0.5-0.2c1.7-0.6,3.3-1.2,4.7-2.1l116-67.4
			c0.1-0.1,0.2-0.1,0.3-0.2c0.5-0.3,0.8-0.6,1.3-0.9c0.6-0.4,1.2-0.8,1.6-1.2c0,0,0.1-0.1,0.1-0.1c0.6-0.5,1.1-1.1,1.5-1.6
			c0.1-0.1,0.2-0.3,0.3-0.4c0.1-0.1,0.2-0.3,0.3-0.4c0.1-0.2,0.3-0.4,0.4-0.6c0.3-0.5,0.5-0.9,0.6-1.4c0-0.1,0-0.2,0.1-0.2
			c0-0.1,0.1-0.2,0.1-0.3c0.1-0.3,0.2-0.6,0.2-0.9c0.1-0.5,0.1-0.9,0.2-1.4c0-0.1,0-0.1,0-0.2l0,0L949.3,738.6z"/>
		<g>
			<linearGradient id="SVGID_13_" gradientUnits="userSpaceOnUse" x1="574.6024" y1="711.5033" x2="949.2877" y2="711.5033">
				<stop  offset="0" style="stop-color:#F6F6F9"/>
				<stop  offset="1" style="stop-color:#D7D8D5"/>
			</linearGradient>
			<path class="st19" d="M942.2,728.6c9.4,5.5,9.5,14.4,0.1,19.9l-116,67.4c-9.4,5.5-24.9,5.5-34.3,0L581.7,694.4
				c-9.5-5.5-9.5-14.4-0.1-19.9l116-67.4c9.4-5.5,24.8-5.5,34.3,0L942.2,728.6z"/>
		</g>
	</g>
</g>
<g>
	<linearGradient id="SVGID_14_" gradientUnits="userSpaceOnUse" x1="597.4859" y1="698.5469" x2="887.4891" y2="698.5469">
		<stop  offset="0" style="stop-color:#FFCB27"/>
		<stop  offset="1" style="stop-color:#FFA21E"/>
	</linearGradient>
	<path class="st20" d="M881.9,706.3c7.4,4.3,7.5,11.3,0.1,15.6l-98.8,57.4c-7.4,4.3-19.5,4.3-26.9,0l-153.2-88.4
		c-7.4-4.3-7.5-11.3-0.1-15.6l98.8-57.4c7.4-4.3,19.5-4.3,26.9,0L881.9,706.3z"/>
</g>
<g>
	<g>
		<polygon class="st21" points="794.9,712.5 773.3,725.1 703.8,685 725.4,672.4 		"/>
	</g>
	<g>
		<polygon class="st21" points="822.8,696.3 801.1,708.9 750.8,679.9 772.5,667.3 		"/>
	</g>
	<g>
		<polygon class="st21" points="767.1,728.7 745.4,741.3 660.1,692 681.8,679.4 		"/>
	</g>
</g>
<g>
	<g>
		<g>
			<g>
				<defs>
					<path id="SVGID_15_" d="M882.4,764.4l0,3.7c0,3.7-2.4,7.3-7.3,10.2c-9.7,5.6-25.6,5.6-35.3,0c-4.9-2.8-7.4-6.6-7.4-10.3l0-3.7
						c0,3.7,2.4,7.5,7.4,10.3c9.8,5.6,25.6,5.6,35.3,0C880,771.7,882.4,768.1,882.4,764.4z"/>
				</defs>
				<clipPath id="SVGID_16_">
					<use xlink:href="#SVGID_15_"  style="overflow:visible;"/>
				</clipPath>
			</g>
		</g>
	</g>
	<g>
		<g class="st5">
			<g class="st5">
				<defs>
					<path id="SVGID_17_" class="st5" d="M882.4,764.4l0,3.7c0,3.7-2.4,7.3-7.3,10.2c-9.7,5.6-25.6,5.6-35.3,0
						c-4.9-2.8-7.4-6.6-7.4-10.3l0-3.7c0,3.7,2.4,7.5,7.4,10.3c9.8,5.6,25.6,5.6,35.3,0C880,771.7,882.4,768.1,882.4,764.4z"/>
				</defs>
				<linearGradient id="SVGID_18_" gradientUnits="userSpaceOnUse" x1="832.4816" y1="773.3343" x2="882.429" y2="773.3343">
					<stop  offset="0" style="stop-color:#D7D8D5"/>
					<stop  offset="1" style="stop-color:#F6F6F9"/>
				</linearGradient>
				<use xlink:href="#SVGID_17_"  style="overflow:visible;fill:url(#SVGID_18_);"/>
				<clipPath id="SVGID_19_">
					<use xlink:href="#SVGID_17_"  style="overflow:visible;"/>
				</clipPath>
			</g>
			<g>
				<path class="st21" d="M875.1,754.1c9.8,5.6,9.9,14.8,0.1,20.5c-9.7,5.6-25.6,5.6-35.3,0c-9.8-5.6-9.8-14.8-0.1-20.5
					C849.5,748.4,865.3,748.4,875.1,754.1z"/>
			</g>
		</g>
	</g>
	<g>
		<g>
			<g>
				<defs>
					<path id="SVGID_20_" d="M882.4,764.4l0,3.7c0,3.7-2.4,7.3-7.3,10.2c-9.7,5.6-25.6,5.6-35.3,0c-4.9-2.8-7.4-6.6-7.4-10.3l0-3.7
						c0,3.7,2.4,7.5,7.4,10.3c9.8,5.6,25.6,5.6,35.3,0C880,771.7,882.4,768.1,882.4,764.4z"/>
				</defs>
				<clipPath id="SVGID_21_">
					<use xlink:href="#SVGID_20_"  style="overflow:visible;"/>
				</clipPath>
			</g>
		</g>
	</g>
</g>
</svg>
